<?xml version="1.0" encoding="UTF-8"?>
<svg width="165px" height="62px" viewBox="0 0 165 62" version="1.1" xmlns="http://www.w3.org/2000/svg" xmlns:xlink="http://www.w3.org/1999/xlink">
    <!-- Generator: Sketch 42 (36781) - http://www.bohemiancoding.com/sketch -->
    <title>PR Logo</title>
    <desc>Created with Sketch.</desc>
    <defs>
        <polygon id="path-1" points="0 62 165 62 165 0 0 0"></polygon>
    </defs>
    <g id="Symbols" stroke="none" stroke-width="1" fill="none" fill-rule="evenodd">
        <g id="Header-Logo">
            <g id="PR-Logo">
                <mask id="mask-2" fill="white">
                    <use xlink:href="#path-1"></use>
                </mask>
                <g id="Clip-2"></g>
                <path d="M66.2457637,30.1388813 C66.4322709,28.9615813 68.3148778,28.2097146 69.0795042,27.9549897 C69.3823791,27.8538489 69.5130936,27.6178538 69.6932245,27.7093621 C69.7628326,27.744146 69.906831,27.8527787 69.9052369,28.0020817 C69.8962038,28.7432456 69.7197925,29.3623984 69.9185209,30.0099135 C70.0375455,30.3984225 70.0311692,30.8324181 69.9498711,31.1888189 C69.9934426,31.7410797 69.9849409,32.103367 69.9790959,32.6583034 C69.9764391,32.9007202 70.1794185,33.1848776 70.1331902,33.3464888 C69.9557161,33.970993 69.9073624,34.6982433 69.9493398,35.4452937 C69.812249,35.9044408 69.6868482,36.0558844 69.4785552,36.4187068 C69.2335985,36.8462808 67.5534395,37.31399 66.8748934,37.2674331 C66.5013476,36.9677568 66.0953889,36.6798534 66.2797707,35.8546731 C66.1607461,35.1814715 66.212288,34.6441946 66.299431,34.0780203 L66.0008069,33.1270829 C66.0427843,32.4137461 66.1745615,31.6827498 66.2670181,31.0839322 C66.3222794,30.7248557 66.2064431,30.3871846 66.2457637,30.1388813 L66.2457637,30.1388813 Z M61.3880746,34.7865408 C61.3678829,35.9638409 61.5745818,36.8928377 61.5549215,38.0786999 C61.7095471,38.3114842 61.7621517,38.6389877 61.9353749,38.8642801 C62.5076492,39.6102602 63.685142,40.2406509 64.5087493,40.7137115 C64.969438,40.978604 65.5119561,40.790236 65.8876273,40.7201331 C66.4216437,40.8437496 67.0327072,40.8753227 67.4163488,40.7046141 C68.3696078,40.2791807 69.095445,39.5835034 70.0083207,38.9713074 C70.067833,39.6081197 70.2118314,40.1657318 70.642764,40.3064727 C70.9004734,40.5087542 71.4010141,40.7463548 71.7809362,40.4531 C72.2049611,40.6746465 72.8101796,40.6783925 73.4897885,40.762944 C74.295861,40.8630145 74.9797207,40.6002626 75.4892945,40.2609861 C75.7746346,40.0715478 76.1120479,39.797558 76.1386159,39.3261028 C76.1699661,38.7561826 75.8235197,38.3232572 75.4095906,38.1557595 C75.2746253,38.1011756 75.107247,38.0192998 75.0934317,37.8020344 C75.00682,36.4363663 75.067395,34.9369142 75.1316895,33.5171973 C75.1561321,32.9772447 75.1465676,32.5025787 75.0216981,31.9358693 C75.1003393,30.6809745 75.033388,29.4892257 74.9467764,28.0400764 C75.0870553,27.5605942 75.2060799,26.786787 75.0588933,26.2789426 L75.3213849,23.0798972 C74.9951301,22.3986686 74.8691979,21.5857964 74.5482567,20.9361409 C74.343152,20.5203399 73.992986,20.2276203 73.7400589,19.8567708 C73.4765045,19.4709374 72.9478018,19.3612345 72.581695,19.222099 C72.0487414,18.7554601 71.4817807,18.1951723 70.6432954,18.3407294 C68.9567601,18.2101561 66.0741345,18.241194 64.5188451,18.6238165 C64.2776079,18.7832872 63.9933305,18.9807525 63.7021455,19.1380826 C62.2818214,19.9065385 61.0256874,21.3738824 61.2775518,23.8017962 C61.356193,24.5638304 61.7775612,25.2065292 62.4151926,25.1444534 C63.7898198,25.5318922 65.1846386,24.9903341 65.9609549,24.4402139 C66.3031505,23.9687588 66.3658509,23.3351573 66.5454505,22.7636316 C66.6017746,22.5838258 66.4832814,22.2798683 66.5486386,22.0246083 C66.7218618,21.3465905 67.1055034,20.8355352 67.6416452,20.607032 C68.0050952,20.5775995 69.2622919,20.6375348 69.5385988,20.7194106 C69.8037473,20.7980757 70.0630507,20.9703896 70.1464742,21.4803746 C70.0747406,22.1284247 70.2256468,22.898486 70.3558298,23.6664067 C70.22299,24.0249481 70.1725108,24.4337923 70.2075805,24.8902636 C70.2113,24.9411016 70.0768661,25.0797019 70.0359514,25.1080641 C69.7144789,25.3296106 69.3536857,25.4826596 68.8887461,25.5393841 C68.3584493,25.6052058 67.7845809,25.6924331 67.3834045,26.2024181 C65.8950664,26.8044465 63.983766,27.6799296 62.69947,28.8695378 C62.395001,29.8311779 61.9034934,30.6756231 61.5219772,31.7036201 C61.4614022,31.8663016 61.3684143,32.0477128 61.3822296,32.2339403 C61.4422733,33.0628665 61.2414194,33.9645714 61.3880746,34.7865408 L61.3880746,34.7865408 Z M17.6624967,30.2619627 C17.4935243,30.7050556 17.5392213,30.9084074 17.4770522,31.4430087 C17.5599443,32.0824967 17.1529229,32.4982977 16.8245427,32.7733578 C16.3309096,33.1859479 13.932884,33.6691761 13.3542334,33.8570089 C13.0880223,33.943701 12.6023596,33.8473765 12.6145809,33.684695 L12.7793024,31.66402 C12.7686752,31.1181809 12.5965147,30.6215743 12.4424204,30.1982815 C12.5694153,29.8397401 12.6326471,29.4506959 12.6257394,28.9439218 C12.6071419,27.5252752 12.4636748,26.2083046 12.6719677,24.8356797 L12.5635704,23.8365801 C12.4705825,23.1227081 12.582168,22.4029497 12.6687796,21.6740939 C12.6135182,21.1983577 12.4865232,20.6712484 12.5779171,20.2319014 C12.8558181,19.8289437 12.941367,19.6271973 12.8786666,19.1482502 C12.967935,18.7998764 13.2739981,18.5992003 13.7299046,18.7110438 C14.2665778,18.4734432 17.0004227,18.6361247 17.1513288,19.2360126 C17.3187071,19.9017222 17.3532454,20.3394638 17.5509112,20.8762056 C17.5089338,22.4832202 17.4186026,24.1116402 17.5445349,25.6084167 C17.6640908,27.0275984 17.7406065,28.6206994 17.6624967,30.2619627 L17.6624967,30.2619627 Z M24.0834456,22.8936698 C23.9452921,22.035311 23.6758928,21.2342118 23.6774869,20.379599 C23.0382613,19.2804289 22.6323026,18.1555722 22.0297409,17.2303214 L19.4000424,15.702507 C18.0928979,15.7126746 17.2044647,15.4804254 16.2140105,15.3712576 C15.4833911,15.6457825 14.6523448,15.564977 14.0736942,15.8774966 C13.73203,15.9486697 13.3946167,15.9893401 13.0332922,15.8892696 C11.948256,15.9930861 11.0646051,16.3430653 9.92005659,16.3880167 C9.34884506,16.5924388 8.76647499,16.7080283 8.16338189,16.8573313 C7.88760628,16.9252937 7.56347695,16.8739206 7.30683029,16.9124504 C6.24357981,17.0729913 3.71749648,17.2506566 3.46084981,17.5679925 C3.15000447,17.9516852 3.47307108,17.993961 3.66276645,18.3605294 C3.76478748,18.5574596 3.76797564,19.292737 3.71749648,19.7187056 C3.69305394,19.9258034 3.89497057,20.5615454 3.88115522,20.8130595 C3.86255764,21.1582225 3.86840259,21.1346765 3.93588526,21.5536883 C4.04534533,21.6591101 4.42792421,21.7120886 4.85566865,21.7848672 C5.50233323,22.6838963 5.75526038,23.2597031 5.68937179,24.4610843 C5.63889264,25.3868702 5.63623584,26.2457641 5.63357904,27.2443286 C5.50127051,27.7628758 5.68458956,28.2669742 5.7563231,28.8529486 C5.52146218,29.93767 5.67024285,31.1299539 5.66546061,32.4399678 C5.66333518,32.8702174 5.78767331,33.2758508 5.90776057,33.767106 C5.82061761,34.3022424 5.62879681,35.0787253 5.63357904,35.6887808 C5.63889264,36.3791067 5.7037185,37.039465 5.6367672,37.7228342 C5.59744659,38.1295379 5.79617507,38.506809 5.87269084,38.8803342 C5.72975512,39.6712658 5.81583537,40.5494246 5.82911936,41.3847725 C5.83921519,41.9868009 5.65111391,42.5460185 5.54059112,42.9735924 C5.90882329,43.5868587 5.78607923,44.5072933 5.55600055,45.3014357 C5.52624441,45.404717 5.36949334,45.624123 5.1612004,45.6845934 C4.82750659,45.7819882 4.52622573,46.209027 4.49221871,46.6558659 C4.47415249,46.8913259 4.65428338,47.158359 4.59636519,47.3365594 C4.50603406,47.6153655 4.39976215,48.0525719 4.51241038,48.4501782 C4.56448361,48.6348003 4.85354321,48.7487843 5.07565151,48.6899193 C5.59000756,48.5529244 6.03050463,48.2147182 6.6707929,48.1569235 C7.29142086,48.1007342 7.98697052,48.0761179 8.47475859,47.7379117 C9.28295648,47.762528 9.40198102,47.5249274 10.3706495,47.5436572 C10.8212424,47.3799054 11.3605723,47.1888617 12.0640924,47.3033809 L13.4206533,46.9742721 C13.6528575,46.9164773 14.0030234,46.8329961 14.0327796,46.5531197 L14.1789034,45.1510624 C14.1985637,44.9552025 14.1810289,44.6769315 13.9934589,44.5463583 C13.6438244,44.3039415 13.0014107,44.3975904 12.6953475,44.2033358 C12.5343456,43.643048 12.4041625,42.9254302 12.5816366,42.3217963 C12.3765318,40.7024736 12.5274379,38.9943183 12.6060791,37.1197355 C12.6172377,36.8596592 12.6937535,36.4529556 12.9355221,36.4395771 C13.8452096,36.3898095 15.1948629,36.015214 16.0073117,35.8771488 C16.2347336,35.8380838 16.4297425,35.6673753 16.6449431,35.56784 C16.8654574,35.4645586 17.1433584,35.552321 17.3861897,35.4351261 C18.7937612,34.7549678 20.2714721,34.0683878 21.3650101,32.9162392 C21.5764912,32.6936224 21.7725629,32.4298002 21.8708644,32.256416 L23.7189329,28.9573002 C23.8119208,28.791943 23.7540026,28.4301908 23.8363634,28.0518494 C23.8873739,27.8169245 23.7401873,27.4241344 23.8422083,27.1661987 C24.261451,26.115726 24.3028971,24.2609432 24.0834456,22.8936698 L24.0834456,22.8936698 Z M106.403262,31.3204625 C106.347469,30.8853966 106.541947,30.569131 106.694447,30.3743413 C106.852792,30.1715246 106.830475,29.8076319 106.905397,29.6963235 C107.379901,28.9894084 109.379407,28.0914495 110.215767,27.8822112 C110.523424,27.8062218 110.411307,28.1422875 110.404931,28.2680445 L110.339574,29.1852683 C110.552118,30.067173 110.400149,31.0817916 110.098337,31.7410797 C110.008005,32.271935 110.100462,32.9215905 110.145096,33.4984676 C110.231176,34.6142269 110.076019,35.3270286 109.941585,36.3989068 C109.684407,36.7408589 109.290139,36.9543783 108.908091,37.1834167 C108.479815,37.0838814 106.533977,37.2952602 106.697635,36.6536317 C106.844291,36.0810358 106.540353,35.8182838 106.360753,35.4474343 C106.580736,34.2824424 106.557888,33.3743159 106.611024,32.1097886 C106.614743,32.0241668 106.416015,31.4280249 106.403262,31.3204625 L106.403262,31.3204625 Z M107.78586,40.7650846 C108.062698,40.5446084 108.557925,40.543003 108.928283,40.6585924 C109.111602,40.7163871 109.430418,40.5965166 109.573885,40.480392 C110.126499,40.0314126 110.736499,39.6043737 111.244479,39.1061618 C111.543635,39.7579579 111.966065,40.1480723 112.28063,40.6313005 C113.225919,40.9834202 114.114352,41.2959399 115.161662,41.3890536 C115.816297,41.4473835 116.258388,41.2081775 116.883798,41.2162045 C117.018763,41.2183451 117.144696,41.0048257 117.15798,40.825555 C117.196237,40.3166403 117.37318,39.8146823 117.271691,39.2848973 C117.217492,39.0071615 117.002291,38.7315663 116.723327,38.7620691 C116.417796,38.5180469 116.164869,38.1552244 116.18506,37.6928666 C116.214285,37.0383948 116.286019,36.2148199 116.13405,35.6550672 C116.072943,35.4281694 116.258388,35.2333797 116.267952,34.9904278 C116.334904,33.3486294 116.05222,31.8572043 115.776976,30.3829035 C115.93107,30.0077729 116.301959,29.7578642 116.237665,29.0707491 C116.230226,28.9969003 116.378475,28.7336132 116.377412,28.701505 C116.358283,28.0759305 116.447021,27.4610588 116.312587,26.8868575 C116.397073,26.4999539 116.523005,26.1178665 116.728641,25.7780549 C116.774338,24.8426365 116.862544,23.6412553 116.718014,22.7010207 C116.578266,21.7966402 116.301959,21.0099897 115.846053,20.4101018 C115.142533,19.9707548 114.514997,19.484851 113.674918,19.190526 C112.773201,18.8737252 111.918243,18.6184652 110.970829,18.3990593 C110.629696,18.5264217 109.31405,18.4948487 109.082908,18.268486 C108.315625,18.2518968 107.600415,18.2786536 106.885737,18.3139726 C105.9176,18.6345193 105.101431,19.1568124 104.276761,19.6469973 C103.620532,20.0349712 103.013188,20.6953295 103.115209,21.9464784 C102.745914,22.1947817 102.615731,22.7154694 102.715627,23.2623787 C102.672587,23.8237368 103.108833,24.1073591 103.253363,24.5863062 C103.507353,24.777885 103.810759,24.9496638 104.141796,25.0748857 C104.818217,25.3296106 105.582843,25.1712102 106.269891,25.1883346 C106.857575,24.8089229 107.184892,24.2101053 107.495737,23.6524932 C107.706687,23.2730815 107.638673,22.6758693 107.769919,22.2188628 C108.126993,21.8993864 108.346975,21.4129474 108.623814,21.1191575 C109.098849,20.9666436 110.408651,21.0287195 110.826299,21.1592927 C111.18603,21.2722065 111.364566,21.6944291 111.311962,22.2536467 C111.23704,23.0526053 111.17434,23.879391 111.427798,24.4632248 C111.522911,24.6826307 111.180185,24.9571557 110.987832,25.1048533 C110.593564,25.4072054 110.113215,25.5013894 109.672186,25.723471 C109.323083,26.0466934 108.874084,26.3677752 108.280555,26.2382722 C107.455354,26.5047701 106.385727,26.8295979 105.69496,27.3513559 C104.48718,27.7147135 103.117866,28.5623695 102.686402,29.9018159 L102.144947,31.9733289 C102.130069,32.0894535 102.110408,33.8703873 102.114659,33.9934687 C102.130069,34.3980318 102.063649,34.7945679 102.048239,35.191104 C102.039206,35.4388721 102.028048,35.7267755 102.174171,35.9156786 C102.362804,36.1597008 102.430818,36.5401828 102.219337,36.9586594 C102.308074,37.6377475 102.621576,38.1696731 102.872378,38.734242 C103.101925,39.2490432 103.629565,39.4807572 103.895245,39.9447205 C104.13967,40.370689 105.727904,40.3974459 106.161494,40.574576 C106.630153,40.76669 107.247593,40.9812797 107.78586,40.7650846 L107.78586,40.7650846 Z M93.9593527,23.9484236 C93.6591346,24.5038952 93.5045089,24.8779555 93.3158763,25.5163732 C93.0480711,25.7957144 91.5698288,25.8754497 91.2542012,26.0541853 C90.8009515,26.0707745 90.0570481,26.0493691 89.6516208,26.1467639 C89.51453,26.1794072 89.3062371,25.7764495 89.3843469,25.6276816 C89.7270738,24.97428 89.7350442,21.6890778 89.4443906,20.7397458 C89.7754276,20.1264795 89.8482238,18.456854 89.546943,17.7205063 C89.588389,17.0210831 89.5628837,15.9310102 89.4571432,15.3530629 C89.7132585,14.6102936 89.824844,13.8659189 89.7887115,12.9567222 C89.5357844,12.500786 89.4316379,12.0041794 89.5931712,11.4759998 C90.1723531,11.0971233 92.5666593,11.2555236 93.248925,11.5514541 C93.4545611,11.8934062 93.5714602,12.3996452 93.5140734,12.9042788 C93.4890995,13.1226145 93.6787949,13.010771 93.6793262,13.0289656 C93.71599,13.8723406 93.9258771,14.3111524 93.9949538,14.8280941 C94.0624365,15.337544 93.8185424,16.1643297 93.910999,16.4142384 C94.1708338,17.1163373 94.0029242,18.656995 93.7032374,19.1782178 C93.7276799,20.1339714 93.8100407,23.1949516 93.9593527,23.9484236 L93.9593527,23.9484236 Z M95.437595,42.3683532 L96.4487722,43.1025603 L98.3574158,43.9705515 C98.3574158,43.9705515 99.2920772,43.8694107 99.6762502,43.929346 C100.850555,44.1846061 101.8256,43.6200372 102.469607,43.5221072 C102.934016,43.5221072 103.81501,42.7188675 104.294296,42.4100938 C104.753391,42.1516229 103.914905,41.5126701 103.914905,41.5126701 C103.841578,41.1642963 101.587551,41.3772806 101.488718,41.0235554 C101.263953,40.6414681 100.167758,40.6414681 100.378176,39.6685901 C100.11409,38.8937126 100.325572,38.2906139 100.173071,37.5039634 C100.276155,36.419242 99.9929405,35.5453642 100.155005,34.9395898 C100.104526,34.4477995 99.9732802,33.9998904 99.8935762,33.6076354 C100.05511,32.8461363 99.8765727,32.6342223 99.6119557,32.1606266 C99.0901606,31.2262785 98.6586966,30.2603573 97.8797235,29.4544419 C97.5247753,29.3003226 97.1023445,29.1328249 96.7707761,28.8411756 C96.4609935,28.9498083 96.1703398,28.7544835 95.8812802,28.6800995 C95.7362191,28.6421048 95.4700079,28.674213 95.4832919,28.4098557 C95.5837189,28.3354717 95.5922206,28.1872389 95.6278217,28.1037576 C95.7096511,27.908968 95.869059,27.8645517 96.0268727,27.8185299 C96.5417602,27.6702972 97.1087208,27.5472158 97.4466655,27.1624527 C98.0481645,26.4758728 98.8042891,25.9985311 99.3122689,25.4703515 C99.8771041,24.4257653 100.182104,22.8283831 100.62207,21.7704185 C100.636948,20.842492 100.401025,17.3758785 100.42281,16.291157 C100.268185,15.7099989 100.163507,15.0389379 100.198045,14.3036605 C99.9456495,12.6367106 98.9530698,11.7558762 98.0332864,10.8199226 C97.4307247,10.2077266 96.5731104,10.0482559 95.9838326,9.38415168 C95.403588,9.33866509 94.9444933,9.11123213 94.5794493,8.91804789 L90.8689655,8.41501969 C90.1803235,8.41608996 89.4172912,8.63496074 88.723867,8.55950651 C86.1032017,8.27374368 86.1000135,8.71630147 83.3491651,8.62800397 C82.1413848,8.58840388 80.8108605,8.70559875 80.7300938,9.30655691 C80.6902419,9.77426611 80.6498585,9.96959089 80.7300938,10.3977 C80.4883252,10.7878144 80.9383868,11.5466378 80.9787701,11.9533415 C81.0595368,12.2257259 80.5212695,13.0535819 81.0446587,13.0921117 C81.3039621,13.1311767 82.3969688,13.1076307 82.2099302,13.8958866 C82.4766727,14.5862125 82.4602005,15.6270528 82.4644514,16.5961848 C82.4681709,17.2415593 82.335331,17.7991714 82.5574393,18.3150428 C82.7040946,18.6548545 82.8603143,19.1808935 82.5531885,19.5918783 C82.4405402,20.348026 82.4713591,21.2363524 82.5537198,22.0556462 C82.3316115,23.9601966 82.2418118,26.2313154 82.4129095,28.2830283 C82.4495734,28.7159537 82.5292773,29.1424574 82.6605231,29.5630746 L82.5314027,30.7478665 L82.6467077,32.217351 C82.624922,33.139391 82.6743384,33.9576146 82.8252446,34.6827244 C82.664774,35.0434063 82.6180143,35.4592073 82.5308714,35.9049759 C82.2816637,36.2009063 81.9575344,36.2918795 81.6387187,36.4770367 C81.3900424,36.6204532 80.9782387,36.7355076 80.9500767,37.1084976 L80.8151114,38.9857561 C80.8082037,39.4919951 81.2858959,39.7868552 81.7311752,39.7258497 L83.544174,39.5176816 C84.5983914,39.5444385 85.5373037,39.4475788 86.4528363,39.3876435 C87.5543446,39.3164704 88.3508526,39.7183578 89.3960368,39.3962057 C89.8269694,39.264027 90.4752281,38.9547182 90.7967006,38.6368471 C90.8020142,38.130073 90.789793,37.6612935 90.7409079,37.2171303 C90.7084949,36.9244107 90.1851058,36.8125672 90.0108198,36.6530966 C89.7052881,36.3732202 89.2844513,36.454561 89.0708448,36.0687276 C89.0820033,35.6775429 89.1292943,35.2911745 89.2047474,34.9995251 C89.1404529,34.4472644 89.1787108,33.9073118 89.1457665,33.3716402 C89.3816901,32.9660069 89.1377961,32.9124932 89.0405573,32.2285889 C89.2403485,31.6538524 89.1510801,31.3456139 89.1404529,30.4861848 C88.9996426,30.2282491 89.0240851,29.3367119 89.2956099,29.1301492 C89.9900968,28.9267974 90.9927723,29.01563 91.4545238,29.3046037 C91.9901342,29.6395991 92.4237236,30.1511895 92.6081054,30.8795101 C92.8179924,31.7073661 93.1389336,33.3700348 92.9423305,34.8919627 C92.9226702,35.0434063 93.1081147,35.5164669 93.127775,35.6780781 C93.2122612,36.364658 93.0980189,37.2005411 93.1941949,37.8448453 L93.337662,38.1225811 L93.4774096,38.9466911 L94.0634992,40.009472 L94.9684045,41.0396095 L94.9684045,41.4323996 L95.437595,42.3683532 Z M83.8380159,58.1233035 C84.144079,58.0590872 84.3247412,57.9542004 84.5319715,57.7176702 C85.0383571,57.5988699 85.3295422,57.4351182 85.6956489,57.0631984 C85.8438982,56.912825 85.9198826,56.8165005 86.0314681,56.6356244 C86.1706843,56.4386942 86.2445433,56.3247102 86.3672874,56.1170772 C86.5522005,55.8034873 86.7472094,55.778871 86.792375,55.2849401 C86.826382,54.9087393 87.1680462,54.6968253 87.2174627,54.2708567 C87.2488129,53.9990074 87.2381857,53.836326 87.1722971,53.5714334 C87.217994,53.3118923 87.217994,53.1556325 87.1722971,52.895021 C87.1382901,52.6954152 87.102689,52.5830365 87.0160774,52.4000199 C87.1127848,52.0612786 87.1010949,51.8247483 86.9709118,51.4977799 C86.9039605,51.3265363 86.8465737,51.2323523 86.7254237,51.093752 C86.6069305,50.9267894 86.5468869,50.8261838 86.4570871,50.642632 C86.2206321,50.1636849 86.3497525,49.7960462 86.1207365,49.3133532 C85.9687677,48.9912011 85.8284888,48.8397575 85.6281662,48.5465028 C85.4761974,48.3233509 85.3874603,48.1991992 85.2253957,47.9830041 C85.4634448,47.8754417 85.5915024,47.7475441 85.7014938,47.5099436 C85.7732274,47.354754 85.8120166,47.2514727 85.7907622,47.0812993 C85.7583493,46.8190825 85.5707794,46.7265039 85.3821467,46.5418819 C85.2843766,46.4466276 85.2498382,46.3224759 85.1132788,46.3165894 C84.9926602,46.3117732 84.9002036,46.365822 84.8454736,46.4744547 C84.7089142,46.5290386 84.6297416,46.5536549 84.4873373,46.5868333 C84.2476941,46.6440929 84.0654378,46.5178007 83.860333,46.6547956 C83.6934861,46.766104 83.7035819,46.930926 83.570742,47.0812993 C83.4193045,47.2541484 83.2025098,47.2482619 83.1233373,47.464457 C83.0781717,47.5886086 83.0877362,47.6715548 83.1010202,47.8026632 C83.1291822,48.076653 83.2136684,48.2473615 83.4145223,48.4341241 C83.4049578,48.7391519 83.4708464,48.9382226 83.6589477,49.1779637 C83.8061343,49.3652614 83.9288784,49.4551643 84.151518,49.5381105 C84.1339831,49.7329001 84.1499239,49.8517004 84.2184693,50.0347171 C84.2721366,50.1781336 84.3364311,50.2434202 84.4203859,50.3729233 C84.556414,50.5832319 84.6403688,50.6982862 84.800308,50.8904001 C84.6658741,51.2237901 84.6658741,51.4801204 84.800308,51.8135104 C84.8762924,52.0008081 84.9453692,52.1030192 85.0909617,52.2421547 C85.1754479,52.5241715 85.2062667,52.6916692 85.2253957,52.9854591 C85.2461187,53.3017247 85.2131744,53.4815305 85.1807615,53.797261 C85.150474,54.0969374 85.2338974,54.3109919 85.0686446,54.5635763 C84.9559964,54.7353551 84.7997767,54.7455227 84.6664054,54.9012474 C84.5027467,55.0922911 84.4288877,55.2250049 84.3529033,55.4652811 C83.920908,55.5220056 83.6706376,55.6129788 83.3024054,55.8468334 C83.1339645,55.9533255 83.0760463,56.0694501 82.8991035,56.1620287 C82.5414986,56.3498616 82.2720993,56.2358775 81.8698601,56.2749425 C81.6780393,56.2931371 81.5696419,56.3391588 81.3778211,56.3198939 C81.0223416,56.2840398 80.8815313,56.0608879 80.5552765,55.9142605 C80.2630288,55.782617 80.0956505,55.7135844 79.7959637,55.6001355 C79.5797004,55.4706325 79.4606758,55.3908972 79.2587592,55.2394536 C79.0302746,55.0682099 78.8001959,55.0344963 78.6992376,54.7658579 C78.652478,54.6417062 78.6987062,54.5534087 78.6546034,54.4287219 C78.6019988,54.2788837 78.5472688,54.1964727 78.430901,54.0899806 C78.376171,53.6276228 78.376171,53.3584492 78.430901,52.895021 C78.4665021,52.5932041 78.4999778,52.4224956 78.5812758,52.1292409 C78.7141157,51.9007376 78.7709711,51.7557157 78.8278266,51.4977799 C78.8825566,51.2489415 78.8931838,51.1001736 78.8724608,50.8459838 C78.9867031,50.6613618 79.0504663,50.5570102 79.1636459,50.3729233 C79.3299614,50.101074 79.4542995,49.9635439 79.5871394,49.6735 C79.6838469,49.4610508 79.719448,49.3331533 79.7885247,49.1100014 C79.8368784,48.9532064 79.8618523,48.8638386 79.9006416,48.704368 C79.8129672,48.7921304 80.037201,48.5673731 80.1243439,48.4790756 C80.2375235,48.3650915 80.3374191,48.3270968 80.415529,48.186356 C80.5016092,48.029561 80.551557,47.9080851 80.5047974,47.735236 C80.4638827,47.5843275 80.3677066,47.531349 80.2587779,47.4195055 C80.1626018,47.3215756 80.1025582,47.2718079 79.98991,47.1942131 C79.8831067,47.0663155 79.8188122,46.9967478 79.6987249,46.8800881 C79.5743868,46.7591472 79.5090296,46.6815525 79.363437,46.5868333 C79.1976529,46.479806 79.0807538,46.4642871 78.9006229,46.3840166 C78.7433404,46.314984 78.6694815,46.2042108 78.4978523,46.2036757 C78.3140019,46.2036757 78.2183572,46.2946488 78.0727647,46.4064924 C77.9037923,46.5370656 77.8256825,46.6435578 77.7311005,46.8351366 C77.6471457,47.0063802 77.5828512,47.1176886 77.6025115,47.3071269 C77.6242972,47.5185058 77.7396022,47.61376 77.8713794,47.7801875 C77.9893412,47.9294905 78.0695765,48.0070853 78.2236708,48.1189288 C78.1184616,48.3340536 78.0546985,48.453389 77.9324858,48.6588814 C77.7427904,48.9799632 77.5573459,49.1126771 77.3952812,49.4482076 C77.2241835,49.8035381 77.1572322,50.0261549 77.1046276,50.4178747 C76.9085559,50.5500534 76.8118485,50.6704591 76.7236428,50.8904001 C76.6327803,51.1194385 76.6922926,51.2746281 76.6790086,51.5202557 C76.6556287,51.9681648 76.6508465,52.2218195 76.6566915,52.6697286 C76.5153498,52.8532804 76.4563689,52.9833185 76.4101406,53.2107515 C76.3474402,53.5232712 76.4797487,53.7046824 76.5057854,54.0225534 C76.531822,54.3382839 76.4983463,54.5207654 76.5445746,54.8338202 C76.6024928,55.2212589 76.6386252,55.4519027 76.8134425,55.8013468 C77.018016,56.2096558 77.2018664,56.418359 77.5578773,56.7035867 C77.7210047,56.8336249 77.8209003,56.8989115 78.005282,56.9963063 C78.1599077,57.1547067 78.2528956,57.2403285 78.4250561,57.3789288 C78.7098648,57.6106429 78.8809626,57.7331891 79.2082801,57.8980111 C79.6572789,58.1238387 79.9383681,58.2303308 80.4373147,58.2811688 C80.7593186,58.313277 80.9463572,58.3089959 81.2657043,58.2581579 C81.4639014,58.4186988 81.6403127,58.4695368 81.8921772,58.4384989 C82.0712453,58.4170934 82.1482925,58.3196986 82.3177962,58.2581579 C82.6142948,58.1511306 82.7896435,58.105644 83.1010202,58.0553412 C83.368294,58.1650442 83.5558639,58.1821685 83.8380159,58.1233035 L83.8380159,58.1233035 Z M25.7758258,45.3843819 C25.9283259,45.4651874 26.0962356,45.4956902 26.2577689,45.4544847 C26.7641545,45.3249817 27.2264373,45.1446408 27.8545043,45.1724678 C28.0468565,45.1799598 28.23974,45.0274459 28.3731113,44.9969431 C28.867807,44.8813536 29.3694104,44.8556671 29.9167108,44.7823534 C30.6760236,44.6801424 31.4496831,44.6737207 32.1739262,44.447358 C32.3434299,44.3949147 32.5230294,44.3253469 32.6027333,44.1075464 C32.7632039,43.6681995 32.7079425,42.9398788 32.7286656,42.5449482 C32.5857298,42.0328227 32.1330115,41.9027845 31.6547879,41.8824493 C31.8375756,39.8660554 31.5989951,37.7453099 31.7174883,36.0029059 C31.7839083,35.0262819 31.6531938,33.9576146 31.6962339,32.9686825 C31.7307723,32.1568806 31.7955982,31.2407271 31.8402324,30.4872551 C31.8699885,29.9794107 31.906121,29.458723 31.6957026,28.8807757 C31.7228019,26.8959548 31.7254587,24.9411016 31.6436293,22.6576746 C31.6340649,22.4013443 31.4188642,22.258998 31.2164163,22.2365223 C30.5399955,22.1616032 29.9565627,22.3403388 29.3444365,22.4875013 C28.7386866,22.3783334 28.1903236,22.4109768 27.6260197,22.5292419 C27.0016723,22.6608854 26.3300338,22.6801504 25.8077073,22.9321996 C25.5680642,23.349606 25.4883602,24.1052186 25.6472367,24.7923337 C25.8417143,25.0261883 26.2508612,25.0909398 26.3762621,25.4778434 C26.3390669,26.7081219 26.5818982,27.6328376 26.6206875,28.7180942 C26.6313146,29.0188409 26.4655305,29.3072794 26.4570287,29.6176585 C26.4506524,29.8611455 26.6084662,30.1319245 26.5733965,30.377017 C26.4968807,30.9051966 26.5043197,31.5254197 26.6174993,31.9497829 C26.5181351,32.5186328 26.5468285,33.1779209 26.6775429,33.6739923 C26.5707397,34.7073407 26.5829609,35.7273106 26.6568199,36.8254105 C26.6775429,37.1331139 26.5675515,37.4258335 26.5500166,37.7281856 C26.5059138,38.4923603 26.6966719,39.0777995 26.8103828,39.6204278 C26.6945464,40.5098245 26.5633006,41.4067131 26.624407,42.2838016 C26.6408791,42.524613 26.4761577,42.7054891 26.3045285,42.7921812 C25.9277946,42.9805492 25.5537175,43.3235716 25.6148238,44.0604544 C25.4160953,44.4286283 25.4150326,45.1938733 25.7758258,45.3843819 L25.7758258,45.3843819 Z M72.7065645,61.0590618 C72.371808,61.0135752 71.864891,60.848218 71.6475649,60.7037312 C71.3691325,60.518574 70.9679561,59.8849725 70.5465879,59.7859723 C69.0795042,59.7287127 69.3244609,58.5284018 68.9987375,58.6921535 C68.9429448,58.4417097 68.4716289,57.4458209 68.5098867,57.2975881 C68.5688677,57.0717605 68.1368723,56.5772945 67.9397379,56.5318079 C67.1102857,56.3402291 67.326549,55.1854048 67.3424898,54.876096 C67.3966885,53.809034 67.0018883,54.001148 66.9636304,53.1481406 C66.9545973,52.942113 66.5220706,51.9456891 66.7712783,51.8488294 C67.1129425,51.7166507 66.6740395,51.3441958 66.6060255,50.9059191 C66.6017746,50.8759515 66.5396055,50.8267189 66.5040044,50.8256486 C66.2276974,50.8133405 65.9896484,50.795681 65.7903885,50.8636433 C65.671364,50.9043137 65.5592471,51.0177626 65.461477,51.0182977 C64.8658229,51.0199031 64.3668763,50.9637138 63.7504992,50.9144813 C63.4120232,50.9637138 63.0485732,51.2799794 62.6080761,51.1023141 C61.9630056,50.8417027 61.3657575,50.9235786 60.8657482,51.1734873 C59.7366091,50.4585451 60.1165312,51.5946396 58.3231927,51.1702765 C57.5436882,50.9856544 56.9666317,51.2617848 56.6217794,51.53738 C55.5463076,51.3543634 56.1100801,50.8138756 53.8959049,51.5122286 C53.5345804,51.6262127 52.8411561,51.5834018 52.4840825,51.5668125 C52.1753626,51.552899 51.6955449,51.6877534 51.4830011,51.7696292 C51.1535582,51.3062011 50.3554561,51.933381 49.9712832,51.8948511 C49.0855068,52.0623488 49.5908297,51.4576447 48.9393829,51.7038074 C48.8283288,51.7455481 47.1476385,52.3186792 47.0769677,52.1972032 C46.9026817,51.8948511 46.0062782,51.7316345 45.6768352,52.1517166 C45.3941519,51.8408024 44.9871305,52.4968796 43.2081387,52.4000199 C42.8686,51.9777973 42.1629545,52.2507168 41.2761154,52.5546743 C41.1151134,52.6097934 40.337203,52.7794316 40.2474033,52.6611664 C39.8945805,52.1961329 39.058752,52.6033717 38.7808509,52.7152152 C38.5204847,52.820102 37.9662767,52.5519986 37.7489506,52.8522101 C36.9003694,52.7328747 37.0013278,53.3445356 35.0836511,52.9228481 C34.783433,52.8570264 34.541133,53.075362 34.4300789,53.2492813 C33.3976472,53.255703 32.3508689,53.2219894 31.4082371,53.3322275 C31.0872959,53.4488872 30.6898389,53.5923038 30.1988627,53.546282 C29.9448728,53.7143149 29.4018234,53.8106394 29.0516574,53.655985 C28.4703501,53.805288 28.0080673,54.0032885 27.2413154,53.9508451 C27.1424825,53.9438884 26.8672383,54.0412832 26.773719,54.0514508 C26.5818982,54.0728562 26.3725425,54.0573373 26.2014448,54.001148 C25.9235437,53.9085694 25.4336302,53.7656879 25.1222535,53.9481695 C24.004273,54.6031764 23.5972516,54.1081752 23.2024514,54.3275812 C22.4022239,54.1927268 21.3772313,54.5480573 21.2550186,54.5394952 C20.215148,54.4661815 19.4707133,54.6256521 19.074319,54.7669281 C18.7655991,54.7514092 18.4117137,54.6304683 18.1242481,54.7669281 C17.8495352,54.8065282 17.3782193,54.9563664 17.2400658,54.9296096 C16.7878789,55.1249344 16.8973389,55.2988537 16.467469,55.2046697 C16.2857441,55.1645345 15.5237745,55.0398477 15.3670234,55.0676748 C14.98657,55.1356371 14.3478758,55.3454106 13.9190686,55.3245402 C11.9721672,55.2319616 11.8882124,55.802417 11.7500589,55.7563953 C11.3297535,55.6172598 10.678838,55.6306383 10.3106059,55.8339901 C9.54066586,56.2588884 10.2181493,56.728203 10.3552401,56.7779707 C10.7941431,56.9385116 11.2697099,56.728203 11.6629159,56.5558891 C11.8759911,56.8052626 12.1958696,56.763522 12.4232915,56.7217813 C12.9716545,56.6206406 13.4870733,56.4638456 13.8611504,56.3466507 C14.7681812,56.3316669 14.5519178,56.6960948 15.4477901,56.477224 C16.0572595,56.3284561 17.2820432,56.586927 17.8798227,56.2856452 C18.0700495,56.6142189 19.0833521,55.908374 19.3187444,55.9848985 C19.6710358,55.8880389 19.6040845,56.0657041 19.9430919,55.9576066 C20.3315157,55.8339901 21.3432243,56.2310613 21.6684164,55.951185 C22.0844709,55.9501147 21.6689477,56.8603817 25.3996232,55.5268218 C25.8007997,55.3839404 27.0059231,56.2588884 27.3587459,55.4230053 C27.8204973,55.6836168 28.8231728,55.4112323 29.0575024,55.3411295 C29.4990622,55.5878273 31.0740119,55.5262867 31.4741256,55.2046697 C32.3970972,55.7114439 33.3678911,55.2469455 33.642604,54.911415 C35.1548533,55.1495506 36.0911088,54.7107388 36.3822939,54.7102037 C36.7478692,54.75462 37.0486188,54.8637878 37.4471384,54.848804 C37.7861458,54.8354256 37.9891252,55.6798708 39.215503,54.6572252 C40.0300772,55.2587185 40.2745026,54.6850523 41.0300959,54.6417062 C41.3101224,54.6256521 41.7283024,55.1768426 42.3531812,54.6572252 C42.45042,55.0831937 43.7607527,55.1581128 44.4711804,54.5207654 C44.7692731,54.2531972 44.8144387,54.8220472 45.2586553,54.4110624 C45.9791788,55.2319616 46.8978995,54.1702511 47.5041807,54.3372136 C48.2592427,54.5443114 49.2332247,54.9461988 49.6726591,54.3291866 C49.7433299,54.2291161 50.1450377,54.0905157 50.3118846,54.1648997 C50.5935052,54.291727 50.9883054,54.2226944 51.3979836,54.2473107 C51.6317818,54.0910509 52.5653805,54.3564785 52.7667658,54.0471697 C52.9437085,53.7742501 53.3347892,54.6272575 54.249259,54.2751378 C55.2413073,53.8919801 55.5043302,54.0075696 56.0016828,54.0284399 C56.3173104,54.0412832 56.653661,54.6572252 57.0351771,54.0728562 C57.2854475,53.6891634 59.3322445,53.9080342 59.8019663,54.0589427 C59.6553111,54.6299332 61.2722382,54.0343264 61.7079531,54.1750673 C62.8052105,54.1927268 63.3594186,54.9906151 63.2791833,55.331497 C63.064514,56.3680562 63.4710041,57.116712 63.6346628,57.2975881 C63.7701595,57.5983348 64.1612401,57.332372 64.3020504,57.5202048 C64.3589059,57.5967293 64.1851513,57.9622275 64.1506129,58.0639034 C63.8998112,58.7927592 64.6394637,58.6375696 64.6936624,58.4459908 C64.7754918,58.1575523 65.7016515,59.7404857 66.1596834,59.7859723 C66.8950851,60.9236723 67.0773414,60.730488 67.9397379,60.7310232 C67.9758704,60.7310232 68.5114808,61.0456834 68.5332666,61.0708348 C68.8053227,61.3849598 69.0720652,61.4390086 69.6772837,61.3876355 C69.8377543,61.373722 70.2208645,61.7970148 70.682616,61.6065063 C70.6549853,61.9345449 71.6884796,61.7905932 72.8691605,61.9891288 C73.3580113,62.0710047 73.2931855,61.6675118 73.2729938,61.5444305 C73.2490826,61.3994085 72.9122007,61.0868889 72.7065645,61.0590618 L72.7065645,61.0590618 Z M59.4943091,34.8941033 C59.1521136,34.8908924 58.7105538,34.7426597 58.3757973,34.9369142 C58.038384,36.1463224 57.7992722,37.4659687 57.0250813,38.1766299 C56.9676945,38.4955711 55.9883988,38.6197228 55.7535379,38.8466206 C55.6265429,38.9707723 54.7232317,39.0258913 54.5128133,38.9782642 C54.3523427,38.9413398 53.9761401,38.9531128 54.0239625,38.8343125 L54.5154701,37.6457746 C54.7492683,36.7146372 54.8528834,35.779754 54.9889115,34.6586432 C55.223241,34.1342096 55.4618215,33.3812727 55.6052885,32.385919 C55.9007245,31.8930584 56.0930766,31.1197863 56.2684253,30.1988166 C56.4156119,29.423404 56.7551506,28.7609051 56.7987221,27.6349782 C56.931562,27.2673395 57.175456,26.735949 57.2705694,26.0643529 C57.377904,25.3130214 57.695657,24.6997551 57.9613368,23.9569858 C57.9411452,23.4539576 57.8890719,22.8385507 58.0107533,22.2584629 C58.0405094,22.1182572 57.6504915,21.9443378 57.748793,21.7067373 C57.9682445,21.175882 58.2950306,20.8328595 58.6159718,20.3790639 C58.5336111,19.9846684 58.6106582,19.5458565 58.6382889,19.0840338 C58.6420084,19.025704 58.4831319,18.786498 58.4273392,18.8004116 C57.1494194,19.1156069 55.4416298,18.9646984 53.8767759,18.990385 C52.648804,19.2242396 49.6885999,19.5897377 48.4420304,19.673219 C48.1386241,19.6940893 47.9568991,19.8482086 47.8022735,19.7336894 C47.6726217,19.8460681 47.5530658,19.9696846 47.535531,20.1489552 C47.3835621,21.7024562 47.0583701,23.039762 46.8686747,24.5584791 C46.8288228,24.8790258 46.725739,25.1952914 46.8320109,25.511557 C46.8596416,25.8230064 47.1906786,25.9899689 47.4861145,25.9289634 C47.9462719,25.8347794 48.2512723,25.4393136 48.6184417,25.0090639 C48.7863514,24.6553388 48.9197226,24.0709698 49.2550105,23.5047955 C49.2948625,22.8562102 49.684349,22.2996684 50.1136875,22.0085542 C50.6078519,21.9250729 52.9208601,21.5617153 53.4389356,21.5162287 C53.2046061,21.9967812 53.0329769,22.6261016 52.947428,23.0542107 C52.6057639,23.5823903 52.4984292,24.1945863 52.506931,24.7431011 C52.5111819,25.001572 52.2821659,25.3360322 52.3337078,25.6234005 C52.4415737,26.2195424 52.081312,26.6947435 51.7656844,26.9371603 C51.7476182,27.3668748 51.6657888,27.7109675 51.6030884,28.0411467 C51.4107362,29.0541599 50.8889411,29.8006751 50.906476,30.9715535 C50.8565282,31.3172516 50.5844721,31.6265605 50.5499337,32.1638374 C50.3156042,32.5411086 50.0068843,33.0034664 50.0058215,33.7580087 C50.0042275,34.8587843 49.5993315,35.7840351 49.0318395,36.2817119 C49.0610642,36.4963016 49.2061254,36.6894858 49.1604285,36.8617998 C48.9563864,37.6249042 48.9787035,38.6582526 48.8963428,39.3838975 C48.6529801,40.0608451 48.354356,40.7238791 48.1965423,41.3804914 C48.3782672,41.7053192 48.6120654,41.8578331 48.9558551,41.9985739 C49.6785041,41.7941518 50.5717195,41.7690004 51.352818,41.7267246 C52.7115044,41.6528758 53.7885702,41.3687184 55.1621347,41.2156694 C55.6770221,41.1578747 57.5351865,40.743144 58.1388109,40.8988687 C58.8301097,41.0776042 59.4470181,40.7543818 59.6563738,40.205867 C59.7105725,39.7290605 59.7647712,39.2822216 59.6685951,38.7449447 C59.8710431,37.6270448 60.2594669,36.6611236 60.3981518,35.3762611 C60.289223,34.9791899 59.9119578,34.7624597 59.4943091,34.8941033 L59.4943091,34.8941033 Z M63.0772666,13.9098001 C64.4391412,13.8289945 65.2090812,13.7835079 66.5725498,13.803308 C67.5582218,13.8177567 68.1118984,13.8916055 69.0970391,13.9215731 C70.3441399,13.9601029 71.0524422,13.8659189 72.2974177,13.9542164 C73.1863822,14.0173625 73.6768271,14.199844 74.5684484,14.215363 C75.0254176,14.22339 75.6561414,14.6306288 75.7400962,14.1779034 C75.8245824,13.7192916 75.0636755,13.917292 74.6215844,13.7808322 C73.2623666,13.3596799 72.4477924,13.2473013 71.0295938,13.1472308 C69.9089565,13.0685657 69.271325,13.2371337 68.149625,13.1820146 C67.2436569,13.1370632 66.7399281,13.0097007 65.83396,12.9529762 C64.2680434,12.8545112 63.354105,12.6682837 61.8110368,12.9529762 C61.0522554,13.0926468 60.6707392,13.3944638 59.9045187,13.4843667 C59.3295877,13.5517939 58.9985507,13.5154046 58.4209628,13.4843667 C57.714786,13.4469071 57.3247681,13.3323879 56.6201853,13.2713824 C53.3230993,12.9877601 51.4431491,13.4549342 48.151908,13.803308 C46.24539,14.0045193 45.0668345,13.7471186 43.2777468,14.4406554 C42.8106818,14.6220666 42.5519097,14.7408669 42.1108812,14.9784675 C41.5742081,14.7312345 41.2229794,14.6536397 40.6331703,14.6536397 C40.0407044,14.6531046 39.7261396,14.8452185 39.1490831,14.9784675 C38.154378,15.2085761 37.6118599,15.4210253 36.6102471,15.61635 C35.7877025,15.776891 35.3094789,15.7806369 34.486403,15.9352913 C33.7377174,16.0765673 33.338135,16.2884814 32.5804162,16.3607248 C32.0065479,16.4142384 31.6691346,16.2547678 31.1027053,16.3607248 C30.6962153,16.4367141 30.3885581,16.5282225 30.0909967,16.675385 C29.9592195,16.6935796 29.8300992,16.7160553 29.7126687,16.7369256 C28.2934073,16.9830884 27.1531097,17.573879 26.4474642,18.6644869 C26.2471417,18.9737957 25.9304514,19.3944129 26.151497,19.9065385 C26.1626555,19.9332953 26.1716886,20.0285496 26.1732827,20.0306901 C26.3528822,20.4101018 26.6355655,20.6787403 27.0287716,20.8612218 C27.6621522,20.8301839 28.2864997,20.69747 28.8688697,20.5818806 C29.2349765,20.5096372 29.5734525,20.4036802 29.8407264,20.214777 C30.8099262,20.3143124 31.3370349,19.6667974 32.2637259,19.2435045 C32.7685175,19.0123256 32.9869063,18.6794707 33.5363321,18.6050868 C34.0352787,18.5376596 34.3062721,18.8062981 34.8094696,18.8180711 C35.7903593,18.8405468 36.2855864,18.3899619 37.2430963,18.1737668 C38.1044302,17.9795123 38.6012514,17.9259987 39.4657734,17.7488686 C40.5837539,17.519295 41.2192599,17.4069164 42.321831,17.110986 C43.0296019,16.9204774 43.4217453,16.7877636 44.1220772,16.5726388 C44.7846825,16.3698221 45.1274095,16.1033242 45.8171142,16.0412483 C46.3543187,15.9930861 46.678448,16.3013246 47.1954608,16.1472053 C47.6247994,16.0209132 47.868162,15.8576966 48.151908,15.5098579 C49.3102719,15.4220955 49.9627814,15.3519927 51.1131749,15.1909166 C52.1078799,15.0523163 52.669527,14.9715107 53.6525422,14.7660183 C54.6546863,14.5562449 55.1754187,14.1623845 56.1982858,14.1217141 C56.9453774,14.0917465 57.3566496,14.3191794 58.1042725,14.3346984 C59.0160855,14.352893 59.5240653,14.2003792 60.4326901,14.1217141 C61.4635277,14.0328815 62.0443037,13.9702705 63.0772666,13.9098001 L63.0772666,13.9098001 Z M46.7044846,39.3394812 C46.7889708,38.7149771 46.8431695,38.0503377 47.0413666,37.5976123 C47.2294679,37.1646869 47.1343545,36.5835288 46.8893977,36.3935554 C46.4329599,36.2410415 46.0556946,36.3090039 45.6763039,36.4187068 C45.4807636,36.4759664 45.2554671,36.4722205 45.0992474,36.7119616 C44.8006233,37.1716437 44.726233,37.9047806 44.3957273,38.5351712 C44.3633144,39.0526481 44.0997601,39.4919951 43.8261099,39.911542 C43.7118676,40.0865316 41.9052451,40.4172459 41.7314905,40.5269489 C41.4163943,40.7254845 41.0359409,40.8630145 40.532212,40.7741819 C40.5715326,40.5178515 40.5391197,40.1833913 40.6384839,39.9752233 C40.8457141,39.5417628 40.9663328,39.0467616 41.173563,38.5918957 C41.3972654,37.0876273 41.8096004,35.7246349 42.1273534,34.327929 C42.3441481,34.0089877 42.4567963,33.6161976 42.6417094,33.1624019 L42.7612653,31.9208855 C43.0795497,31.1963108 43.0715793,30.3240385 43.2963444,29.5967882 C44.1762758,26.7493274 44.7161372,23.7102879 45.7220008,21.0485195 C45.543464,20.822692 45.367584,20.5460264 45.1683241,20.4315073 C43.9265369,20.4935831 42.8856035,20.6798105 41.8574227,20.9265084 C41.7580585,20.9505896 41.640628,20.7472377 41.5093822,20.7713189 C39.7787442,21.0929358 36.4290535,21.5991749 34.683006,21.9914298 C34.5735459,22.0160461 34.3397477,21.9807271 34.2977703,22.2113709 L33.9561061,24.4461004 C33.6712974,25.1770967 33.5889367,26.1066286 33.4359051,26.9676631 C33.3939277,27.2004474 33.4088058,27.5857456 33.6335709,27.6879567 C33.7738498,27.7516379 34.1994688,27.7318379 34.338685,27.7302324 C34.7749312,27.7238108 35.129348,27.6076862 35.4184076,27.1469338 C35.58738,26.5443702 35.9024762,25.8203307 36.2515794,25.2150914 C36.6442541,24.5338628 38.9062518,23.6894176 39.7792755,23.6471418 L39.4227333,25.3397782 L38.9514173,26.2553966 C38.9009382,27.4937022 38.5746834,28.3654393 38.3430106,29.3912958 C38.0608587,29.9387403 37.7446998,30.5980283 37.965214,31.4001978 C37.8674438,31.946572 37.6299261,32.3532757 37.5401263,32.7797794 C37.4683928,33.1169153 37.3812498,33.4829486 37.4067551,33.8928631 C37.1809273,34.4306751 36.9556308,34.9074817 36.9566935,35.8033 C36.8041934,36.2217766 36.7266149,36.7617292 36.5762401,37.2781359 C36.3073722,38.1996407 36.2218233,39.3341299 35.7350979,40.1106128 C35.5252109,41.1182746 35.3153239,42.0226551 34.9614384,42.8280353 C34.8843913,43.0040952 34.9614384,43.1673118 34.9545307,43.3348095 C34.9486858,43.4750152 35.0597399,43.6221777 35.1787645,43.6189669 C35.9035389,43.5970263 36.7069546,43.5274586 37.3562759,43.3706636 C37.5656316,43.3208959 37.8015552,43.3048419 37.9492732,43.3005608 C39.769711,43.2336687 43.1422501,42.701208 44.9446218,42.5080238 C45.435598,42.4561155 45.8957554,42.2928989 46.1965049,41.7893356 C46.1720623,41.4570159 46.2028812,41.0604798 46.4648415,40.880674 C46.5264792,40.3423268 46.6332824,39.8692662 46.7044846,39.3394812 L46.7044846,39.3394812 Z M79.4702403,60.5897472 C79.0844733,60.769553 79.1174176,60.4912821 78.8453615,60.2542166 C78.497321,59.9502592 77.9096373,59.7881128 77.3841227,59.6222206 C75.9606104,59.1721709 76.2714558,58.3218391 75.5302092,58.1431036 C75.4600697,57.7315837 74.6640931,56.8229221 74.4637706,57.1135012 C74.3622809,56.8662682 74.4860877,56.2637046 73.9510086,55.6076274 C73.7857558,55.4048107 73.4424975,55.1591831 73.4366526,54.4121327 C73.4345271,54.1793484 73.2719311,53.9074991 73.2767133,53.7159203 C73.2820269,53.4574494 73.3718267,52.5830365 73.4201804,52.3400846 C73.493508,51.9703054 73.1614083,51.8017374 73.1534379,51.4678123 C73.141748,50.9348165 73.3415392,51.4025257 73.5089175,50.9449841 C73.8165746,50.6800915 73.8675852,49.1421096 73.9526027,48.8012277 C74.0625941,48.3570645 74.5971418,48.3281671 74.5971418,47.5447274 C74.9526214,47.6116195 75.6189463,46.8206879 75.6853662,46.2170541 C75.7140596,45.9591183 76.2060986,45.8799181 76.2937729,45.6573014 C76.4250187,45.3249817 76.686979,45.3003654 76.9983557,45.1425002 C77.4255687,44.9252348 77.9590537,44.4869581 77.6710569,43.8228539 C77.5153685,43.4653828 76.9685995,43.6617778 76.7193919,43.7730862 C76.5706112,43.8399782 76.4308637,44.0262057 76.308651,44.0267408 C76.0716646,43.8678053 76.31609,43.5991669 74.1693974,43.8571026 C73.7421843,43.9079406 73.3085949,44.3419362 72.7421656,44.1642709 C71.5099428,43.7779024 71.2485139,44.0936329 70.5646541,44.2814658 C69.9982249,44.2809306 69.9684687,43.4873234 68.0141283,44.4714392 C67.5879779,44.6870991 66.7691528,44.5169258 66.2287602,44.4045471 C65.2399,44.1995899 65.6899616,44.4259526 65.259029,44.8781428 C65.0517987,44.5613421 62.3774661,44.1589195 60.822708,45.0306567 C60.4045281,45.2661167 60.2148327,44.910251 59.7684907,44.8829591 C59.3821923,44.8594131 59.1011031,45.1243056 58.8354233,45.2591599 C58.7126792,44.9193483 58.0298822,44.957343 57.559629,45.0729325 C56.452807,45.3469223 54.7508624,45.5235173 54.595174,46.1271512 C53.5425508,45.5679336 53.3873938,46.6419524 52.9649629,46.3957896 C52.4373229,46.0880862 52.0398659,46.0345726 51.5781145,45.8847344 L50.3262314,46.1769188 L49.3926326,46.1721026 C49.0849754,46.0763132 48.7757242,46.271638 48.4919782,46.2919732 C47.887291,46.781623 46.9462532,46.7586121 46.0774803,46.5450927 C45.8681247,46.4942547 45.3022267,47.3140837 45.1741691,47.1647806 C44.8410067,46.7762716 43.8999689,46.8923962 43.5529911,47.0754128 C43.2272677,47.2471916 42.9089833,46.9100557 41.5673004,47.0218992 C39.7904341,47.7015224 39.5566359,47.0358127 38.3366343,47.1492617 C37.9529927,47.1851158 37.6586195,47.3997055 37.5194033,47.6838629 C36.228731,47.6951008 36.4949421,47.2316727 33.7424996,47.8203227 C33.3407918,48.0113664 32.8439706,48.2473615 32.2307817,48.170837 C31.9130286,48.4464323 30.8710325,48.3265617 30.6446734,48.6406868 C29.9342456,48.4175349 29.4916231,48.920028 28.5335819,48.8349413 C28.4097751,48.8237034 28.0665168,48.9826389 27.9490863,48.9992281 C27.7089118,49.034012 27.4474829,49.0099309 27.2338764,48.9168171 C26.8863672,48.7659087 26.4846594,49.0736121 26.0383174,49.155488 C25.788047,49.2020448 25.9054775,48.7305897 25.3502068,48.9093252 C24.3996045,49.2159584 24.0754752,48.931801 23.4851347,49.4524887 C23.3480439,49.4904834 23.1200907,49.3566993 22.8315625,49.6702892 C22.4872415,49.5124239 21.654601,49.5809214 21.0509766,49.7997922 C20.6513942,49.9453493 20.2241811,50.0727117 19.7815586,50.0325765 C19.168901,49.9763872 18.5583689,50.1620795 18.3362606,50.3863017 C17.9499622,50.3606151 17.3410242,50.2289716 16.9812937,50.4531937 C16.6380355,50.5179452 15.8574683,50.6303239 15.6847764,50.5875129 C15.5737223,50.2289716 14.7070748,50.4082423 14.1066385,50.5693183 C13.8781539,50.6303239 13.6852704,50.8283243 13.4886674,50.8748812 C13.0136319,50.9856544 12.4163838,51.0578978 11.8807733,51.0867952 C10.5454668,51.034887 9.56829656,51.3784445 9.56829656,51.3784445 C9.10176287,51.2136225 7.6495572,51.7589265 6.34081861,51.6213964 C5.78289108,51.5625314 5.56397094,52.1961329 5.00498069,52.157068 C4.42898693,52.1169327 4.05384708,52.2566033 3.37636364,52.4299875 C2.85350584,52.5637716 2.35668466,52.5305932 1.84339132,52.698626 C1.48153547,52.8168911 1.36729316,52.8880643 1.00224915,52.9988375 C0.699374198,53.0914161 0.287039182,53.0726863 0.0670563257,53.3022598 C-0.0524995745,53.4264115 0.0426137861,53.4852765 0.0160458083,53.6554499 C-0.0168984842,53.8737855 -0.0168984842,54.1499159 0.198302136,54.1911214 C0.57769286,54.2644351 0.800863873,54.0198777 1.1775978,53.9289045 C1.79928848,53.7779961 2.1170415,53.8636179 2.7567984,53.8470287 C3.23183385,53.8347205 3.53789695,53.9631533 3.97254907,53.7705042 C4.67288096,53.4590548 5.45610495,53.452098 6.22763903,53.4141033 C6.77865889,53.3873465 6.53210805,53.7068229 7.07196936,53.5928389 C7.21224828,53.5634064 7.58579405,53.3916276 7.6915346,53.3402545 C8.16603869,53.4098222 8.6979296,53.3140328 9.06031682,53.1047945 C9.44023891,53.102654 9.73514346,53.2631949 10.0109191,53.3771789 C10.6963729,53.2118218 11.3037169,52.7714045 11.8085084,52.7612369 C12.9424297,52.7382261 15.0540526,53.0496755 15.2825372,52.836156 C15.8479038,52.3095818 17.5811987,52.765518 17.7406065,52.424101 C18.669423,52.6092582 19.4574293,52.1897113 19.8814542,52.012046 C20.3665855,51.8086942 21.1753147,51.8300996 21.5674581,52.1131868 C22.0876591,52.1126516 22.5685395,52.0800083 22.9973466,51.9810081 C23.1153085,51.9542513 23.4192461,52.2325222 23.7061803,52.0543218 C24.5420089,51.5352395 26.3050599,52.0045541 26.2312009,51.4191149 C26.6605394,51.7589265 27.9857502,50.9819085 28.245585,51.152617 C28.6595141,51.423396 29.6228689,51.423396 29.6228689,51.0124112 C30.1340368,51.258574 30.5660322,51.1194385 30.8582799,51.0043842 C31.4108939,51.407877 32.4199457,51.3441958 33.0878646,51.0750222 C33.8960625,51.0573627 34.1181708,51.0124112 34.2908627,50.7651782 C35.5618747,50.3638259 36.1920671,50.9588976 36.5353254,50.4093125 C36.5353254,50.4093125 37.9694649,50.878092 38.4684115,50.1663606 C38.8509904,50.2600095 39.2649195,50.5778805 39.7218887,50.4398153 C40.1788579,50.5115236 40.7925782,50.3306475 41.2909935,50.3065663 C41.714487,50.2851609 42.295263,50.4649667 42.4865525,49.983344 C42.8282166,50.3975395 43.4461878,49.830295 43.9079393,50.0282954 C44.9520608,50.4756694 45.1300662,49.983344 45.1300662,49.983344 C45.3521745,50.2289716 48.2071694,50.2963987 48.4032411,49.6702892 C49.1588344,49.9608682 49.6269622,49.563797 50.6997771,49.6927649 C51.1950042,49.7516299 52.6987518,49.6253377 52.6764347,49.379175 C53.0542313,49.5809214 53.1041791,49.1940178 53.8618978,49.4674725 C54.8061238,49.8078192 55.3762726,48.9997633 57.2859788,48.9077198 C57.6930002,48.8879198 57.9608055,49.3657966 58.4730361,49.4059318 C58.7647525,49.1490663 59.2530719,48.8467143 59.6457466,49.0211687 C59.8349106,49.1051852 60.5687182,49.234153 60.889128,49.2673315 C61.2918985,49.3090721 61.3322819,48.975147 61.9114638,48.9093252 C62.0336765,48.8954117 62.7377279,48.9328712 62.9109511,48.9093252 C63.4449674,48.837617 63.2967181,48.3383347 63.9189402,48.3725834 C64.313209,48.3939889 64.800997,48.7268437 65.0959016,48.9093252 C65.225022,48.9895957 65.6145085,48.8905955 65.8509635,48.7525303 C66.3722272,48.4491079 66.0188731,48.9537416 66.6065568,49.2004394 C68.5470819,49.2229152 68.1251824,48.1488964 69.4514559,49.0136768 C69.4620831,49.2384341 69.3441212,49.5466727 69.3728147,49.7307596 C69.6353063,51.4009203 69.0359327,51.4009203 69.7511427,52.9356914 C69.2139382,53.2353678 69.7686775,54.2194836 70.0577371,54.2194836 C69.9472143,54.7059226 70.4360651,54.6160197 70.6114138,54.9237231 C70.682616,55.048945 70.4089658,55.3416646 70.4987656,55.4711676 C70.7511614,55.8361306 70.9461703,55.3159781 71.5954917,57.1156417 C71.7607445,57.5731833 71.4924079,57.7540594 72.0652135,57.8295137 C72.1544819,58.4047853 72.8011465,57.9745356 73.3760776,59.1716357 C73.7660955,59.985043 74.2862965,60.0974217 74.5525076,59.9406267 C74.5982045,59.9406267 75.1300955,59.8651725 75.6412634,60.5447957 C76.0121523,61.0381914 76.8490436,60.7572448 77.2714745,61.3945923 C77.4484172,61.6632307 78.62591,61.9987613 78.6705442,61.573863 C79.4256061,61.9762855 80.1673841,61.8200257 80.3039435,61.7140687 C80.4537869,61.5979441 80.5701546,61.1949864 80.5446493,60.9921697 C80.5148932,60.7561746 80.1891698,60.2536815 79.4702403,60.5897472 L79.4702403,60.5897472 Z M164.885758,54.42123 C164.648771,54.0637589 164.230591,54.2933324 163.816131,54.1911214 C163.382542,54.0851644 163.142367,54.009175 162.71356,53.8850234 C161.936712,53.6608012 161.507374,53.5040063 160.731589,53.2728273 C160.315534,53.1492108 160.090769,53.02827 159.661431,52.9603077 C158.985541,52.8532804 158.549826,53.275503 157.907413,53.0373673 C157.440348,52.8639831 157.326637,52.4968796 156.881889,52.2715872 L156.705477,52.1854302 C156.620991,52.0639542 156.509937,51.9724459 156.381348,51.9210728 C155.878682,51.7198615 155.107679,51.5668125 154.581633,51.7947806 C154.409473,51.8691646 154.27929,51.5298881 154.171424,51.5084827 L151.870105,51.0867952 C151.334495,51.0578978 150.737247,50.9856544 150.262743,50.8748812 C150.06614,50.8283243 149.871662,50.5040317 149.644772,50.5693183 C149.107567,50.7245079 148.28396,50.7587566 147.719656,50.4398153 C147.545901,50.4826262 147.222303,50.6763456 146.879576,50.6115941 C146.519315,50.3879071 146.06819,50.4531937 145.681892,50.47781 C145.186665,50.2460959 144.561786,50.2006093 143.969851,50.0325765 C143.515539,50.0898361 143.101079,49.9416033 142.700433,49.7997922 C142.552716,49.747884 142.33964,49.7371812 142.171199,49.7660786 C141.707322,49.846349 141.227505,49.8158463 140.819952,49.469613 C140.699865,49.4177048 140.403366,49.4904834 140.266275,49.4524887 C139.772642,49.0923419 139.037772,49.0334769 138.490472,49.1795691 C138.218416,49.2528828 138.116395,48.8772171 137.866656,48.8306602 C137.420845,48.747714 136.865043,48.7659087 136.518065,48.9168171 C136.303927,49.0099309 136.042498,49.034012 135.802324,48.9992281 C135.684893,48.9826389 135.341635,48.8237034 135.217828,48.8349413 C134.259787,48.920028 133.681668,48.5957353 132.954768,48.351178 C132.517459,48.6048326 131.838381,48.4464323 131.520628,48.170837 C130.907439,48.2473615 130.410618,48.0113664 130.00891,47.8203227 C128.831418,47.6394466 127.522679,47.6951008 126.232007,47.6838629 C126.092259,47.3997055 125.798417,47.1851158 125.414776,47.1492617 C124.194774,47.0358127 122.991245,47.1476562 121.93012,47.3435162 C121.541696,47.5795113 121.041687,47.3386999 120.715432,47.166386 C120.368454,46.9839045 119.961433,47.0786237 119.510308,47.134813 C118.965133,47.2022402 118.586274,46.8822286 118.242484,46.67192 C118.075106,46.5691738 117.883285,46.4942547 117.674461,46.5450927 C116.805157,46.7586121 115.864119,46.781623 115.259963,46.2919732 C114.975686,46.271638 114.666966,46.0763132 114.358246,46.1721026 L113.425179,46.1769188 L112.173296,45.8847344 C111.711544,46.0345726 110.925663,46.306957 110.422997,45.9591183 C110.26784,45.8515559 110.100462,45.6214473 109.952213,45.6198419 C108.578117,45.6027175 106.514848,45.3073222 105.407494,45.0344027 C104.927145,45.0964785 104.146578,45.6198419 103.758154,45.7124205 C103.491943,45.5775661 102.80277,46.1025349 102.417003,46.1260809 C101.970661,46.1533728 99.9940032,46.1127025 99.5295949,46.2293622 C99.118854,46.3331787 99.0763452,45.8783127 97.7320056,46.1779891 C97.301073,45.7252637 96.9562206,45.4475279 96.0311236,45.2923384 C95.4870114,45.2013652 95.2122985,44.3328389 94.7420453,44.2579198 C94.1277937,44.1605249 93.7531852,44.2809306 93.1872873,44.2814658 C92.5028962,44.0936329 91.7616496,44.1947737 91.0092445,44.1642709 C90.4167785,44.1407249 90.0044435,43.9368379 89.5820127,43.8571026 C88.8104786,43.9368379 88.1877252,44.0299517 87.4427591,44.0267408 C87.3205464,44.0262057 87.1807988,43.8399782 87.0320182,43.7730862 C86.7828105,43.6617778 86.4852492,43.6906752 86.1398655,43.7110104 C86.0952313,43.7136861 86.0176528,43.7934214 86.0118078,43.8421188 C85.9273217,44.5613421 86.3258413,44.9252348 86.7530544,45.1425002 C87.0638997,45.3003654 87.2732554,45.6069986 87.4045012,45.9398534 C87.4921755,46.1624702 87.6855904,46.4476979 87.9390489,46.4894385 C88.4263056,46.5691738 88.6616979,47.0968183 88.7876301,47.6062681 C89.3434322,47.817647 89.6882846,48.3570645 89.7993387,48.8012277 C89.8838249,49.1421096 90.2924404,49.3513479 90.1590692,49.4910185 C89.9093302,49.7532353 89.9438685,50.2439554 90.2509944,50.509383 C90.418904,50.9669246 90.5868136,51.482261 90.5751237,52.0152568 C90.5671533,52.3491819 90.2722487,52.5996258 90.3455764,52.969405 C90.3939301,53.2128921 90.4688518,53.4574494 90.4752281,53.7159203 C90.4789476,53.9074991 90.3354805,54.1798835 90.3142262,54.4121327 C90.3041303,54.530933 90.3152889,54.9065987 90.2610902,54.9799124 C90.10859,55.1848696 89.9050793,55.3673512 89.8004015,55.6076274 C89.6707497,55.9051632 89.6670302,56.2786884 89.5644778,56.5264566 C89.0719075,56.8004464 88.81101,57.2676205 88.7414019,57.6791403 C87.7955819,58.2913364 87.1792048,59.0528355 86.3672874,59.6222206 C85.8412414,59.7827615 85.2540891,59.9502592 84.9060486,60.2542166 C84.6339925,60.4912821 84.1483299,60.5009145 83.7296185,60.5752985 C83.4729719,60.6202499 83.3093131,60.8787208 83.2800883,61.1157862 C83.2545831,61.3186029 83.2583026,61.7001552 83.447998,61.7140687 C84.1993404,61.7713283 84.8236879,61.8119987 85.6000042,61.7734688 C85.6775827,61.5829603 85.8481491,61.4663006 86.0479403,61.4882411 C86.8045963,61.5727927 87.5107731,61.2592028 87.8513746,60.7438664 C87.8779426,60.7031961 88.0001553,60.5769039 88.0453208,60.5769039 C89.1234494,60.5752985 89.730262,59.9336699 90.1202799,59.1202626 C90.6197579,59.0217975 91.1373021,58.8082781 91.2265705,58.2330065 C91.7999075,58.1575523 92.0724949,57.5951239 92.1559184,57.1156417 C92.1846118,56.9492143 92.4593247,56.9775765 92.6654922,56.9347656 C92.7250045,56.3370183 93.0007801,55.8361306 93.2531759,55.4711676 C93.3429756,55.3416646 93.0682627,55.048945 93.1399963,54.9237231 C93.3158763,54.6160197 93.6129063,54.3687867 94.0720009,54.2697864 C94.2765744,53.973856 94.2813566,53.3445356 94.0002674,52.9356914 C94.3148323,52.5851771 94.7808346,51.9371269 94.4184474,51.3356336 C94.3180204,50.7769512 94.2462869,50.1990039 94.3785954,49.7307596 C94.4296059,49.5509538 94.289327,49.2384341 94.2994228,49.0136768 C94.8445977,48.783033 95.6395116,48.9039739 96.1490854,49.1014392 C96.7362378,48.8552765 97.4546359,48.7305897 97.9758996,49.0350823 C98.212886,49.1720772 98.5364839,49.1249852 98.6656043,49.045785 C98.9610402,48.8627684 99.4031314,48.9253793 99.7974002,48.9034387 C100.419622,48.8697251 101.079571,48.8745414 101.614118,48.9462496 C101.78681,48.9692605 101.932403,49.1314068 102.054616,49.1453204 C102.633266,49.2116773 102.90851,49.0334769 103.31075,48.9912011 C103.631691,48.9585578 103.758686,49.3550938 103.948381,49.2705423 C104.341056,49.0960878 104.986126,49.1490663 105.278374,49.4059318 C105.790073,49.3657966 106.113671,49.1148176 106.465431,48.9077198 C106.673193,48.7851736 106.958533,48.8006925 107.071712,48.9360821 C107.616356,49.5884133 108.945286,49.8078192 109.889512,49.4674725 C110.647231,49.1940178 111.159993,49.6205215 111.767868,49.7682191 C112.33908,49.7329001 112.599446,49.5011861 113.097861,49.4856671 C113.737618,49.4664022 114.132418,49.7195217 114.574509,50.0277603 C115.454972,50.0555874 116.191437,49.9416033 117.027265,50.1465606 C117.291351,50.0662901 117.632484,49.9260844 117.982118,49.9672899 C118.218573,49.9945818 118.45184,50.2364635 118.602215,50.2214797 L120.176633,50.0882307 C120.666547,50.2000742 121.071443,50.3590097 121.407262,50.5912589 C121.667097,50.4291126 122.036392,50.2851609 122.460417,50.3065663 C122.958832,50.3306475 123.335034,50.1513768 123.791472,50.0791334 C124.248973,50.2171986 124.899888,50.2600095 125.282467,50.1663606 L127.216616,50.4093125 C127.559343,50.9588976 128.80485,51.4464068 129.460016,50.7651782 C129.979154,50.4874424 130.524329,50.831 130.664077,51.0750222 C131.330933,51.3441958 132.340516,51.407877 132.89313,51.0043842 C133.185378,51.1194385 133.54564,51.2987092 134.109944,51.2339577 C134.394752,50.9872598 135.122715,50.9144813 135.505825,51.1531521 C136.351218,51.0445194 137.007447,51.2339577 137.519678,51.4191149 C138.727458,51.3500823 139.431509,51.7616022 140.044698,52.0543218 C140.349699,52.1998789 140.636102,51.9542513 140.753532,51.9810081 C141.182871,52.0800083 141.66322,52.1126516 142.183952,52.1131868 C142.576095,51.8300996 143.384293,51.8086942 143.869956,52.012046 C144.293449,52.1897113 144.802492,52.1982735 145.24352,52.3566738 C145.537362,52.2314519 145.87637,52.2849656 146.010804,52.424101 C146.859916,52.3020899 148.834448,52.7965559 149.599606,52.8843183 C150.745749,53.0159619 150.893998,52.3283116 151.942902,52.7612369 C152.410498,52.9544212 153.10711,53.3113572 153.740491,53.3771789 C153.996606,53.4039357 154.231467,53.1449297 154.542313,53.1128216 C154.738384,53.2155677 154.925423,53.2578435 155.112461,53.2765733 C155.398864,53.3568437 155.721931,53.3841357 156.024806,53.3450707 C156.115137,53.3632654 156.209187,53.3894871 156.305364,53.4264115 C156.760207,53.5987254 156.955216,53.8379314 157.41378,54.0000777 C158.161934,54.2644351 158.640689,54.2194836 159.434009,54.2301863 C159.833591,54.2350026 160.072703,54.0894455 160.459533,54.1911214 C160.915439,54.3115271 161.000457,54.7530146 161.453706,54.8798419 C161.943088,55.017372 162.244901,54.7230469 162.751818,54.7658579 C163.159902,54.7995714 163.372977,54.9333555 163.777342,54.9948962 C164.132821,55.048945 164.336863,55.0671396 164.696062,55.0778424 C164.696062,55.0778424 165,55.0778424 165,54.6887982 C164.975026,54.578025 164.948458,54.515414 164.885758,54.42123 L164.885758,54.42123 Z M153.366414,55.8339901 C152.964706,55.7109087 152.347798,55.6172598 151.926961,55.7563953 C151.788807,55.802417 151.685192,55.5947841 151.598581,55.5819408 L149.757951,55.3245402 C149.329144,55.3063456 148.851452,55.2629996 148.47153,55.1955724 C148.314247,55.1672101 148.15909,54.9686745 147.977365,55.0093449 C147.547495,55.1029938 146.88861,55.1249344 146.436954,54.9296096 C146.2988,54.9563664 146.039497,55.0746315 145.765315,55.0344963 C145.476787,54.8985717 145.115994,54.9381718 144.806743,54.9531556 C144.41088,54.8118796 143.911402,54.7840525 143.437429,54.6813063 C143.073448,54.7171604 142.742411,54.6261873 142.422001,54.5394952 C142.303508,54.5079221 142.132941,54.5009653 141.999039,54.51916 C141.627619,54.5678574 141.243446,54.5496628 140.917191,54.3382839 C140.821015,54.3067108 140.58456,54.3511272 140.474568,54.3275812 C140.079768,54.1081752 139.491553,54.0723211 139.054244,54.1616889 C138.835855,54.2061052 138.755089,53.9765317 138.554766,53.9481695 C138.198224,53.8978666 137.753476,53.9085694 137.475044,54.001148 C137.304477,54.0573373 137.095122,54.0728562 136.902769,54.0514508 C136.80925,54.0412832 136.534537,53.9438884 136.435704,53.9508451 C135.669484,54.0032885 135.207201,53.805288 134.625362,53.655985 C134.275196,53.8106394 133.731616,53.7143149 133.478157,53.546282 C132.987181,53.5923038 132.590255,53.4488872 132.269314,53.3322275 C131.326151,53.2219894 130.278841,53.255703 129.246941,53.2492813 C129.135355,53.075362 128.899963,52.9447887 128.593369,52.9228481 C127.617792,52.8532804 126.654438,52.9217779 125.804794,53.0416484 C125.49448,53.185065 125.093835,53.0379025 124.833468,52.9335509 C124.556099,52.8217074 124.230375,52.8795021 123.869582,52.914286 C123.433336,52.9554915 123.12993,52.7601667 122.855748,52.6317339 C122.721846,52.569123 122.568283,52.5231013 122.400904,52.5546743 C121.705886,52.6841773 120.95295,52.698626 120.468881,52.4000199 C120.24199,52.3871766 119.994908,52.2683763 119.748357,52.3267062 L119.001266,52.329917 L118.000184,52.1517166 C117.630358,52.2432249 117.00176,52.4091172 116.599521,52.1972032 C116.476245,52.1313814 116.341811,51.9906406 116.222787,51.9895703 C115.123935,51.9794027 114.100537,51.8226077 113.21476,51.6567154 C112.830587,51.694175 112.504333,51.7134399 112.194019,51.7696292 C111.981475,51.6877534 111.75671,51.5261422 111.44799,51.5400557 C111.090385,51.5566449 110.631822,51.588218 110.258807,51.5202557 C109.325208,51.3500823 108.130712,51.3543634 107.054709,51.53738 C106.710388,51.2617848 106.14449,51.0445194 105.353296,51.1702765 C104.9213,51.2387739 104.446796,51.1242547 104.070062,51.078233 C103.579086,51.0188329 103.26399,51.1734873 102.811272,51.1734873 C102.263971,51.0589681 101.670443,51.1205088 101.068944,51.1023141 C100.594439,51.0873303 100.264997,50.9637138 99.9265205,50.9144813 C99.3101434,50.9637138 98.8111968,51.0199031 98.2160741,51.0182977 C98.1177726,51.0177626 98.0056557,50.9043137 97.8866312,50.8636433 C97.6873714,50.795681 97.4493223,50.8133405 97.1730153,50.8256486 C97.1374142,50.8267189 97.0752452,50.8759515 97.0704629,50.9059191 C97.0024489,51.3441958 96.5640773,51.7166507 96.9062728,51.8488294 C97.1554804,51.9456891 96.5109413,53.122454 96.7128579,53.1481406 C97.1034072,53.196838 96.2654532,54.0198777 96.3664115,54.3302568 C96.8106281,54.4597598 96.0879791,54.9440583 95.9811758,55.029145 C95.7813846,55.1891507 95.4274992,56.5146836 95.6729873,56.6768299 C95.8068899,56.955636 95.0481084,57.4179938 95.038544,57.7428216 C95.0316363,57.9467085 94.2473496,58.5647911 94.3063305,58.7906186 C94.3451197,58.9383163 94.2085603,59.0046732 94.1522362,59.2561873 C93.3955802,59.6297125 93.5895265,59.7035613 92.9396737,60.0503297 C92.518837,60.1487948 92.0236098,60.6411202 91.7451774,60.8262774 C91.5278514,60.9707643 91.0985129,61.1692999 90.7637563,61.2142513 C90.5586515,61.2420784 90.4279371,61.3994085 90.4040259,61.5444305 C90.3833029,61.6675118 90.3870224,61.9008313 90.5379285,61.9093935 C91.1394275,61.9447125 92.722879,61.7220958 93.3429756,61.6985497 C93.4051447,61.5824252 93.5417041,61.5107169 93.7016433,61.5240953 C94.3068619,61.5760035 94.8722284,61.3849598 95.1437532,61.0708348 C95.1650075,61.0456834 95.2627777,60.9680886 95.2994415,60.9680886 C96.1618381,60.9675534 96.6469693,60.5763687 96.9594088,60.0797622 C97.3589912,60.0198269 97.7729202,59.8897888 97.8441224,59.5382042 C98.3032171,59.4927176 98.5216059,59.1496951 98.5880258,58.8569755 C98.6114056,58.7558348 98.8308571,58.7729591 98.9961099,58.7467374 C99.0428696,58.3823096 99.2633838,58.0762115 99.4653004,57.8541299 C99.5375653,57.7754649 99.3181138,57.5967293 99.3749693,57.5202048 C99.5152482,57.332372 99.7532973,57.1814635 100.120998,57.1209931 C100.284126,56.9406521 100.288376,56.5564242 100.06308,56.3065155 C100.315476,56.0935312 100.687959,55.6986006 100.397836,55.331497 C100.317601,54.9906151 101.092855,54.9654637 101.198595,54.6791658 C101.238979,54.5694628 101.960034,54.3120622 101.969067,54.1750673 C102.40425,54.0343264 103.466969,53.9390721 103.875053,54.0589427 C104.345307,53.9080342 106.224725,53.887699 106.642374,54.0728562 C106.831007,54.1568726 107.090841,54.1279753 107.193925,54.0792779 C107.429849,53.9679695 107.783734,54.0064993 108.099362,53.9925858 C108.597246,53.9722506 109.125417,53.9749263 109.55263,54.0188075 C109.690784,54.032721 109.807151,54.1322564 109.904922,54.1408186 C110.368267,54.1809538 110.58825,54.0723211 110.910254,54.0471697 C111.166901,54.0268345 111.26839,54.2687162 111.419828,54.2168079 C111.734393,54.1103158 112.250343,54.1429591 112.484141,54.2992189 C112.893819,54.2751378 113.15206,54.1215536 113.43368,53.9952615 C113.600527,53.9208775 113.827418,53.9299748 113.91828,54.0123858 C114.355058,54.4105273 115.417777,54.5443114 116.172839,54.3372136 C116.77912,54.1702511 117.189861,54.4308625 117.675524,54.5207654 C118.132493,54.4988248 118.341317,54.3575488 118.739837,54.3484515 C119.251005,54.3366785 119.567164,54.4907978 119.920518,54.6786306 C120.625101,54.6962901 121.214378,54.6261873 121.88336,54.7514092 C122.09431,54.7021766 122.36796,54.6165548 122.646924,54.6417062 C122.836619,54.6588306 123.022595,54.8059931 123.143214,54.7968958 L124.403067,54.7160902 C124.794679,54.7840525 125.118277,54.8809122 125.387145,55.0221882 C125.595438,54.923188 125.890874,54.8354256 126.229881,54.848804 C126.628401,54.8637878 126.92915,54.75462 127.294726,54.7102037 C127.660301,54.7947552 128.181565,54.8204418 128.487628,54.7637173 L130.033884,54.911415 C130.309129,55.2469455 131.305428,55.5444813 131.829348,55.1281452 C132.244871,54.9595772 132.681118,55.1682804 132.792703,55.3175835 C133.326188,55.4813352 134.133855,55.5209353 134.575946,55.2742374 C134.810275,55.3443403 135.098272,55.4545784 135.549397,55.4144432 C135.77735,55.2635347 136.35972,55.2196535 136.666314,55.3652106 C137.342204,55.2993888 137.867187,55.4144432 138.277397,55.5268218 C139.243408,55.4850812 139.806118,55.7365953 140.297626,55.9147957 C140.54152,56.0036283 140.770536,55.8543253 140.864055,55.8703794 C141.207844,55.9303146 141.592017,55.9501147 142.008603,55.951185 C142.322637,55.7783359 142.969301,55.7649575 143.357194,55.8891091 C143.696201,55.9972067 144.103754,56.002558 144.455514,56.0994177 C144.691438,56.0234284 144.962431,56.0560717 145.069766,56.1400881 C145.749906,56.0657041 146.58414,56.0705204 147.036859,56.3921373 C147.953454,56.4724078 148.908839,56.3316669 149.815869,56.3466507 C150.189946,56.4638456 150.705365,56.6206406 151.253728,56.7217813 C151.474242,56.6522136 151.710166,56.5542837 152.014104,56.5558891 C152.40731,56.728203 153.048129,56.7747599 153.486501,56.6147541 C153.624655,56.5644513 153.754306,56.4595645 153.759089,56.386786 C153.777155,56.1202881 153.609777,55.9073038 153.366414,55.8339901 L153.366414,55.8339901 Z M2.67975127,5.11483359 C2.99484748,5.65799702 3.53949103,6.05239254 4.23982292,6.19794964 C4.81528532,6.31674991 5.45079135,6.33869051 5.94070487,6.51046929 C6.29937257,6.6356912 6.67663785,6.80211862 6.76643762,7.25002777 C7.88973172,7.22862232 8.61769431,7.68402338 9.18199816,8.29354373 C9.50559613,8.37381419 9.79996933,8.41930078 10.0890289,8.58412279 C10.1469471,8.54666324 10.2914769,8.59000929 10.1921127,8.66332297 C10.2617208,8.79871248 10.4025311,8.82868011 10.4163464,8.82760984 C11.5821493,8.75429616 12.3249899,9.19685395 12.7506089,9.8887853 C13.3032229,10.0182883 13.9350094,10.1659859 14.6151496,9.9711963 C14.9743487,9.86791498 15.2708473,10.0107964 15.6066666,10.0359478 C15.8893498,10.205586 16.2118851,10.3329485 16.4191153,10.5957005 C16.5142287,10.7166413 16.7103004,10.7878144 16.609342,11.0248798 C17.324552,11.0104312 17.7932111,11.2036154 18.2825933,11.3673671 C19.1412703,11.225556 20.1673256,11.3438211 20.7055929,11.7483842 L22.1158211,11.617811 C22.4064748,11.5610865 22.6997853,11.6472435 22.9675905,11.731795 C23.8809976,12.0207687 24.6498749,12.4210507 25.8773154,12.4376399 C26.2152601,12.5708889 26.5813668,12.6554404 26.921437,12.7688893 C27.5952009,12.4285426 28.6642963,12.4643967 29.4002293,12.7876191 L31.0346913,12.59497 C31.4124879,12.406602 31.9964521,12.5211212 32.1749889,12.7234027 C32.8344061,12.6597215 33.304128,12.7474839 33.873214,12.9187275 C34.2265681,12.7560461 34.7579277,12.6281485 35.256343,12.5344996 C35.6261692,12.4660021 36.101736,12.4724238 36.4131127,12.485267 C37.3243944,12.5200509 38.1623484,12.347737 39.0566265,12.6008565 C39.0571579,12.6013916 39.1315482,12.642062 39.154928,12.7057432 L41.6756978,12.1015743 C42.1385119,12.0047146 42.4870838,12.1566933 42.8930425,12.2690719 C43.3930519,12.1957583 43.665108,11.9292603 44.1959361,11.8318655 C45.6911819,11.9800983 47.1242587,11.9051792 48.2688072,11.3978699 C48.6566996,11.4010807 48.9983638,11.3636212 49.3596883,11.4471025 C49.6290876,11.2014749 49.9335566,10.884139 50.3039143,10.6952358 C50.8273034,10.715571 51.2933057,10.6893493 51.6817296,10.566268 C52.4410424,10.3254566 53.3087525,10.1370886 54.2471335,10.06431 C54.8395994,10.0193586 55.4097482,9.86149334 55.9894615,9.64583338 C56.2668312,9.33277859 56.8614225,8.93784794 57.4751428,9.17919445 C57.7068156,9.27070277 59.0984463,8.72165284 59.2918612,8.5991066 C60.1085608,8.0843054 60.0389527,8.04095935 61.3375954,8.1490569 C62.3381455,8.16725154 63.0119094,7.98262949 63.6883301,7.68562879 C64.0491233,7.14995727 64.6692199,7.43518496 65.3488287,7.23664936 C66.0518174,7.26501159 66.4917831,6.83315653 67.2330297,6.8106808 C67.4312268,6.80425916 67.6140145,6.71114543 67.805304,6.67582643 C68.1788497,6.60679383 70.0614566,6.83476194 70.5035478,6.16637659 C71.0194979,6.6121452 72.4329143,6.23540918 73.1853195,6.48050165 C73.3760776,6.54204233 73.5551457,6.24664705 73.7156163,6.23487405 C74.6763144,6.16263063 75.6045995,6.1974145 76.4983463,6.226847 C76.6311862,6.23112809 76.6699755,6.3488581 76.7188605,6.43019883 C77.1481991,6.17119282 77.7608566,6.11928459 78.2938103,5.90362462 C78.7167725,6.08182504 79.4404842,6.05506822 80.0170093,5.9517869 C80.1519746,5.92717062 81.1418975,6.3841771 82.3539286,6.0106519 C83.7721273,5.57344547 84.2997673,6.08450072 85.0782091,5.91753817 C85.6956489,5.78482434 86.4119216,6.0283114 87.0458335,5.8533218 C87.3099192,5.78054325 87.5841007,5.69224575 87.817899,5.83994339 C88.1855998,6.07219258 88.8588323,6.15781441 89.4289811,6.07272772 C90.0294174,5.98282481 90.5017961,6.10430077 91.0182776,6.23166323 C91.1675896,6.20758209 91.3153076,6.179755 91.4672764,6.15727927 C92.0469897,6.47675569 92.7792031,6.32210128 92.8934454,6.29909041 C93.5082284,6.17654418 94.4567053,6.62659388 94.8504427,6.81817271 C95.2388665,6.73041034 95.5725603,6.60679383 95.9461061,6.67582643 C96.1368642,6.71114543 96.3201832,6.80425916 96.517849,6.8106808 C97.2596269,6.83315653 97.7436955,6.67154534 98.4461528,6.64371825 C99.1257617,6.84225385 99.4180094,7.60214751 100.062549,7.68616393 C101.048221,7.81459666 102.031236,8.47495496 102.413815,8.1490569 C103.235296,8.73075016 104.923426,8.26357609 105.740125,8.77837729 C105.933009,8.90038839 106.044594,9.27070277 106.276267,9.17919445 C106.889988,8.93784794 107.484579,9.33277859 107.761949,9.64583338 C108.341662,9.86149334 108.911811,10.0193586 109.504277,10.06431 C110.442126,10.1370886 111.310899,10.3254566 112.069149,10.566268 C112.458104,10.6893493 112.923575,10.715571 113.448027,10.6952358 C113.817853,10.884139 113.952287,11.3497076 114.543159,11.009896 C114.839658,11.3973348 115.09471,11.4010807 115.482603,11.3978699 C116.627151,11.9051792 118.059697,11.9800983 119.556005,11.8318655 C120.086833,11.9292603 120.357827,12.1957583 120.858368,12.2690719 C121.264326,12.1566933 121.612898,12.0047146 122.075712,12.1015743 C122.075712,12.1015743 123.960445,12.8181219 124.827092,12.465467 C125.645386,13.2055606 126.426484,12.5200509 127.338297,12.485267 C127.649674,12.4724238 128.125241,12.4660021 128.495067,12.5344996 C128.992951,12.6281485 129.615704,12.9288951 129.902639,12.5698186 C130.312317,13.0937171 130.917535,12.6597215 131.576421,12.7234027 C131.755489,12.5211212 132.338391,12.406602 132.716187,12.59497 L134.350649,12.7876191 C135.086582,12.4643967 136.114763,13.007025 136.829442,12.7688893 C137.170043,12.6554404 137.536681,12.5708889 137.874095,12.4376399 C139.101535,12.4210507 139.870412,12.0207687 140.78382,11.731795 C141.051625,11.6472435 141.344404,11.5610865 141.635058,11.617811 C141.635058,11.617811 142.781731,11.9206982 143.274833,11.3978699 C143.503849,11.8720007 144.61014,11.225556 145.468817,11.3673671 C145.958199,11.2036154 147.23665,10.7166413 147.332295,10.5957005 C147.540056,10.3329485 147.86206,10.205586 148.144744,10.0359478 C148.480031,10.0107964 148.777061,9.86791498 149.13626,9.9711963 C149.815869,10.1659859 150.123526,10.0771533 151.006115,9.55486019 C151.734609,9.1240754 152.169261,8.75429616 153.335064,8.82760984 C153.348879,8.82868011 153.489689,8.79871248 153.559297,8.66332297 C153.459402,8.59000929 153.604463,8.54666324 153.662381,8.58412279 C153.951441,8.41930078 154.245814,8.37381419 154.569943,8.29354373 C155.133716,7.68402338 155.861678,7.22862232 156.984972,7.25002777 C157.074772,6.80211862 157.452037,6.6356912 157.810705,6.51046929 C158.30115,6.33869051 158.936125,6.31674991 159.511587,6.19794964 C160.209262,6.05292767 160.752312,5.6606727 161.085474,5.11590386 C161.41598,5.13516877 161.742235,5.09610381 162.003132,4.98479545 C162.224709,4.97409272 162.423969,4.96178458 162.694431,4.90880608 C163.190189,4.81087612 163.437803,4.63588652 163.925591,4.50691865 C164.276288,4.41380492 164.638676,4.61394593 164.833684,4.30570737 C164.952178,4.11680423 165.018598,3.9252254 164.900104,3.73578712 C164.799677,3.57631647 164.649303,3.57096511 164.467046,3.52654879 C164.146637,3.44627833 163.95641,3.63464634 163.625904,3.63571661 C163.286365,3.63678689 163.100921,3.51424065 162.760851,3.52654879 C162.494108,3.53511097 162.306538,3.60200302 162.104622,3.67317616 C161.585483,3.56400834 160.972295,3.67852752 160.378766,3.75344662 C160.099271,4.09165282 159.407972,4.33781555 158.77406,4.24684237 C158.627936,4.22650719 158.499879,4.46410774 158.427082,4.49621592 C157.992962,4.68725961 157.46479,4.73381648 157.100809,4.73060566 C156.496122,5.04044963 155.96795,5.23309873 155.465284,5.55792652 C155.026912,5.45999656 154.694813,5.69545657 154.488114,5.88917594 C153.921685,6.06041958 153.476405,5.93038144 153.133147,5.90790571 C152.045454,6.20383614 151.099103,6.44464751 150.086863,6.60197761 C150.0231,6.80051321 149.885477,6.88934585 149.760608,6.9444649 C149.336052,7.13069236 148.652723,7.08520577 148.185127,6.99262717 C148.047505,7.16815191 147.925823,7.337255 147.698933,7.39986596 C147.220178,7.53365006 146.68563,7.60589347 146.164898,7.73646675 C145.710585,7.54114197 145.045855,7.62729893 144.851377,8.11159736 C144.05912,8.38398178 142.937951,8.20845704 142.04261,8.15975963 C141.036747,8.50010637 139.862442,8.71416093 138.717894,8.54880378 C137.956987,8.61944179 137.152508,8.42465214 136.368753,8.59696606 C136.041436,8.66920947 135.849083,9.0298914 135.596688,9.07965908 C134.087626,8.82814498 132.686963,8.97370208 131.438799,9.10748617 C130.737404,8.96460476 130.170975,8.86239371 129.463204,8.6799122 C128.447245,8.8035287 127.215022,8.73235556 126.160273,8.57234978 C125.495542,8.64352292 124.885542,8.44070623 124.361621,8.34652223 C122.625138,8.03614312 121.049126,7.62301783 119.553348,7.17029245 C118.664384,7.17350327 117.927388,7.01831372 117.392841,6.69348593 C116.933746,6.41521501 116.281236,6.43929615 115.86837,6.47889624 C115.052733,6.21935509 114.435293,5.96730585 113.791817,5.75592698 C112.891162,5.69652684 111.750333,5.24326632 110.572841,5.15924991 C110.308224,5.14052013 109.001079,4.40738328 108.740181,4.3517291 C108.163656,4.22864773 107.319326,4.45661583 107.063742,4.00442558 C106.473933,3.56668402 105.84746,3.38420251 105.02279,3.29804555 C104.608861,3.25469951 104.13967,3.14820737 103.675794,3.142856 C103.456873,3.13964518 101.709763,2.33587033 101.491374,2.28503237 C99.9780624,1.93665858 99.9769997,2.185497 98.4573114,1.98161004 C97.707563,1.58400371 96.6320913,1.50587379 95.776071,1.41704115 C95.6299472,1.40205733 95.4705393,1.15321891 95.2994415,1.12967291 L94.9062354,1.04833218 C94.3031423,0.72136385 93.5247006,0.623969027 92.6872779,0.66356912 C91.8870504,0.457541611 90.9454813,0.30074665 89.8471611,0.458611884 C89.1542682,0.186762599 88.0203469,0.120940823 87.2360602,0.46663893 C86.7870614,0.463963248 86.4395523,0.267568194 86.0925745,0.142881415 C85.5197689,0.257935739 84.7753341,0.242416783 84.353966,0 C83.5946532,0.109702959 82.8395913,0.107027277 82.1950521,0.00642163665 C82.1397907,-0.00214054555 81.8427607,0.330179151 81.7954697,0.32589806 C80.7704772,0.233319465 80.1174363,0.117194869 79.0201788,0.0529785023 C78.7173038,0.221011328 78.3310054,0.520152568 77.7326946,0.412590154 C76.6641305,0.219405919 75.6417947,0.381017108 74.4813054,0.485903839 C73.9228465,0.536741796 73.372358,0.785580216 72.6390819,0.626644709 L68.4519686,1.12967291 C68.2803394,1.15321891 68.1209315,1.40205733 67.975339,1.41704115 C67.1193188,1.50587379 66.0443784,1.58400371 65.2946301,1.98161004 C63.773879,2.185497 62.1330407,2.47125984 60.6197287,2.81909849 C60.4008085,2.86940131 60.2945366,3.13964518 60.0756165,3.142856 C59.612271,3.14820737 59.093664,3.45269997 58.6792036,3.49604602 C57.8545336,3.58166784 57.5691935,3.95840386 56.687668,4.00442558 C56.1302718,4.05098245 55.3874311,4.01994454 54.9564985,4.61234052 C54.3050517,4.78679498 53.8241713,4.95643322 53.2476462,5.08004972 C52.9862173,5.13570391 52.7688912,5.31443946 52.5122446,5.38507746 C51.736991,5.59806175 50.8607791,5.69652684 49.9595933,5.75592698 C49.3161168,5.96730585 48.698677,6.21935509 47.8825088,6.47889624 C47.4707051,6.43929615 46.8171328,6.41521501 46.3580382,6.69348593 C45.8234905,7.01831372 45.0864948,7.17350327 44.1980616,7.17029245 C42.7017531,7.62301783 41.1257406,8.03614312 39.389789,8.34652223 C38.8653371,8.44070623 38.2558677,8.64352292 37.5906055,8.57234978 C36.5363881,8.73235556 35.3041653,8.8035287 34.2887372,8.6799122 C33.5804349,8.86239371 33.014537,8.96460476 32.312611,9.10748617 C31.0649788,8.97370208 29.6632523,8.82814498 28.1547225,9.07965908 C27.9023267,9.0298914 27.7099745,8.66920947 27.3826571,8.59696606 C26.5989017,8.42465214 25.793892,8.61944179 25.0335165,8.54880378 C23.888968,8.71416093 22.7151947,8.50010637 21.7087997,8.15975963 C20.8139902,8.20845704 19.6922902,8.38398178 18.9000331,8.11159736 C18.7055555,7.62729893 18.0402933,7.54114197 17.5865123,7.73646675 C17.0652485,7.60589347 16.5317635,7.53365006 16.0530086,7.39986596 C15.8250553,7.337255 15.7039054,7.16815191 15.5668146,6.99262717 C15.0981555,7.08520577 14.4153584,7.13069236 13.9902708,6.9444649 C13.866464,6.88934585 13.7283105,6.80051321 13.6650787,6.60197761 C12.6523074,6.44464751 11.7059561,6.20383614 10.618263,5.90790571 C10.2750048,5.93038144 9.83025682,6.06041958 9.26329617,5.88917594 C9.05606595,5.69545657 8.72449758,5.45999656 8.28612595,5.55792652 C7.78345981,5.23309873 7.25528841,5.04044963 6.65060123,4.73060566 C6.2871513,4.73381648 5.75844854,4.68725961 5.32432778,4.49621592 C5.25153152,4.46410774 5.12294251,4.22650719 4.97734999,4.24684237 C4.3439694,4.33781555 3.6516079,4.09165282 3.37211277,3.75344662 C2.70844468,3.66943021 1.59684049,3.64641934 1.05591646,3.42915397 C-0.10563553,2.96305018 -0.0168984842,4.22436664 0.0160458083,4.49621592 C0.0936243036,5.12500118 1.9725117,5.16032018 2.67975127,5.11483359 L2.67975127,5.11483359 Z M158.098171,47.9005931 C159.178425,48.6214219 159.457388,48.8001574 161.164115,48.7204221 C161.596111,48.8435035 161.901111,48.5052973 162.075928,48.0943125 L162.041921,46.3647517 C161.70929,46.1833405 161.36125,45.9254047 161.20875,45.4758902 C161.198122,44.9359376 161.280483,44.3708335 161.354342,43.8405134 L161.184307,42.9436248 C161.218845,42.4919697 161.338401,42.0692119 161.437766,41.626119 C161.49409,41.3756752 161.375065,41.0401447 161.591328,40.7789981 C161.441485,40.3797864 161.36125,39.7408335 161.569011,39.1848268 C161.391537,38.8343125 161.234786,38.2344246 161.343715,37.6698557 C161.696538,37.074784 161.498341,35.9392246 161.098227,35.6518564 C160.825108,35.1397309 160.905343,34.3889345 161.274638,34.182907 C161.303332,33.7724574 161.224159,33.3860889 161.344778,33.0794558 L161.129046,27.9004058 C161.031275,27.6387241 160.812355,27.4155722 160.7555,26.9451874 C160.350604,26.5197539 159.868129,26.0001365 159.573756,25.4628596 C158.934531,25.0711397 158.130584,24.887588 157.3006,24.8934745 C156.619928,24.632863 156.063595,24.969999 155.548708,25.1728156 C154.938707,25.4125567 154.441354,25.8775903 153.682573,25.9129093 C153.574175,25.4938975 153.702764,25.1235831 153.773967,24.7088524 C153.686824,24.2341864 153.679385,24.573998 153.608714,22.3719118 C153.598087,22.0545759 153.39617,20.1136362 153.387137,19.7839922 C153.357381,18.7228168 153.496597,17.8976365 153.48225,16.8610773 C153.479593,16.5881577 153.335064,16.3189841 153.331875,16.0573024 C153.328687,15.8089991 153.523165,15.5671175 153.521039,15.3327278 C153.514132,14.6290234 153.3882,13.9370921 153.387137,13.4131935 C153.386606,12.806884 153.513069,12.4082074 153.521571,12.1738177 C153.530073,11.9314009 153.408391,11.8131357 153.249515,11.7928006 C153.022093,11.7633681 152.73941,11.8623683 152.414218,11.9731415 C151.98541,12.3878722 151.424295,12.6035322 151.159146,12.5419915 C150.659668,12.7448082 150.319598,13.0498359 149.842969,13.2558634 C149.31214,13.4843667 148.80788,13.5020262 148.349317,13.5587506 C147.9322,13.6095886 147.436973,13.96813 147.285004,14.3898174 C147.215927,15.0186027 147.145256,15.5804959 147.249934,15.9989726 C147.262155,16.0482051 147.331232,16.1862703 147.384899,16.1942973 C147.6899,16.2451353 148.053881,16.1985784 148.337627,16.2563732 L148.553359,17.2527971 L148.277052,19.5062564 L148.457714,20.5899076 L148.549639,23.9259479 C148.595868,24.7869823 148.546451,25.5875463 148.746243,26.3281751 C148.732427,26.9879983 148.549639,27.5188536 148.470998,28.1995471 C148.60862,30.3368818 148.68673,32.538968 148.528916,34.9122979 C148.64741,35.148293 148.711173,35.6978781 148.527854,36.17629 C148.493315,38.2617165 148.544326,39.9532827 148.429552,42.0841958 C148.400327,42.6193321 148.348254,43.1731983 148.081512,43.5601019 C147.718593,43.5911398 147.346641,43.7912808 147.240901,44.2215305 C147.129847,44.6758613 147.132504,45.3453169 147.19361,45.8285451 C147.248871,46.2662866 147.664394,46.5301089 148.090013,46.4097032 C148.136773,46.3963248 148.264299,46.5991415 148.293524,46.6296442 C148.644753,46.4594709 149.005015,46.6178712 149.462515,46.6071685 C150.738841,47.028856 152.329731,47.1123372 153.860578,47.2830458 C154.139011,47.3146188 154.392469,47.0668507 154.42807,46.7393472 C154.483863,46.2277568 154.412661,45.7092096 154.409473,45.169257 C154.197992,44.7042235 153.811693,44.4179255 153.444524,44.082395 C153.403078,43.5579614 153.518383,42.999279 153.612433,42.3030665 C153.568862,41.873352 153.518914,41.0406798 153.706484,40.2861375 C153.69692,39.8960231 153.542825,39.4705896 153.61881,38.8995991 C153.742616,37.9802348 153.651754,37.1299031 153.338252,36.592091 C153.500848,35.438337 153.47056,34.124042 153.26333,32.974569 C153.473217,32.5582329 153.611371,31.0502186 153.584803,30.2036328 C153.571519,29.7862264 153.455151,29.2259386 153.656005,28.8770297 C153.672477,28.4253746 154.152295,28.3461744 154.442948,28.5554128 C154.930205,28.4703261 156.547132,28.1289091 156.877638,28.3932664 C157.244276,28.9123487 157.400496,29.7503723 157.420687,30.3700602 C157.441942,30.9945644 157.206549,32.1943402 157.118875,32.8140281 C157.256497,33.2308994 157.437691,33.688441 157.40209,34.3011721 C157.340452,35.3655584 157.223553,36.3587715 157.186358,37.4151308 C157.172542,37.8180885 157.134816,38.1386352 157.303788,38.447944 C157.128971,39.467914 157.111967,40.6618032 157.194328,41.7144165 C157.228866,42.1639311 157.163509,42.6022078 157.098683,43.0099817 C157.154476,43.4386259 157.175731,43.8683405 157.263405,44.3927741 C156.775617,45.7825233 157.338327,47.1754833 158.098171,47.9005931 L158.098171,47.9005931 Z M156.380285,12.9604682 L156.10451,12.9604682 L156.10451,12.312418 L156.365407,12.312418 C156.534911,12.312418 156.658186,12.3343586 156.734171,12.37931 C156.811749,12.4231912 156.850538,12.5114887 156.850538,12.6415269 C156.850007,12.7790569 156.791026,12.8716355 156.67147,12.9203329 C156.607176,12.9470897 156.509937,12.9604682 156.380285,12.9604682 L156.380285,12.9604682 Z M156.850538,13.6486536 L156.850538,13.7899296 L156.857446,13.8482594 C156.858509,13.8552162 156.860103,13.8616378 156.861697,13.8680595 C156.86276,13.8744811 156.864354,13.8792973 156.865948,13.885719 L157.152351,13.885719 L157.141724,13.8637784 C157.134284,13.8487946 157.129502,13.8177567 157.126845,13.7701295 C157.123657,13.7230375 157.122063,13.6786212 157.122063,13.6368806 L157.122063,13.5063073 C157.122063,13.4164044 157.090182,13.3238258 157.027481,13.2285715 C156.964249,13.1349226 156.864354,13.0760576 156.727794,13.0535819 C156.83566,13.0359224 156.919615,13.007025 156.979659,12.9674249 C157.09337,12.8914356 157.150225,12.7742407 157.150225,12.6147701 C157.150225,12.3900128 157.060957,12.2391043 156.880826,12.1620447 C156.779868,12.1192338 156.622054,12.0978283 156.406322,12.0978283 L155.798447,12.0978283 L155.798447,13.885719 L156.10451,13.885719 L156.10451,13.1804092 L156.346278,13.1804092 C156.508343,13.1804092 156.622054,13.1996741 156.68688,13.2376688 C156.795808,13.3045609 156.850538,13.4415558 156.850538,13.6486536 L156.850538,13.6486536 Z M128.402611,40.9855608 C128.705485,41.9482711 129.241627,42.8323164 130.447282,42.7172621 C131.139644,42.6509052 130.882997,42.6444836 131.254949,43.0394142 L133.227887,43.1988848 C133.333096,43.2101227 133.478157,43.1849713 133.48719,43.0923927 C133.547234,42.4432723 133.60834,41.8439195 133.543514,41.1097124 C133.422364,40.751171 133.085482,40.4953758 132.750194,40.3048673 C132.750194,38.8080908 132.817677,37.5917258 132.97921,36.1575603 C132.927137,35.9424354 132.833618,35.6390131 132.858592,35.3093691 C132.948923,34.1192258 133.1705,33.0848071 133.098235,31.7710473 C133.077512,31.3916356 132.996214,31.0817916 132.921292,30.8864669 C133.218322,29.2778469 133.040317,27.6237403 133.13915,25.9492985 C133.086545,25.684406 133.040317,25.3247944 133.210352,25.0599019 L133.234263,23.8135692 C133.190691,23.2886004 132.981336,22.859421 132.945203,22.2916413 C132.583348,22.1444788 132.419689,21.7243968 132.000446,21.5991749 C131.330402,21.1234386 130.73581,20.4475614 129.748013,20.3892315 C129.206026,20.3576584 128.594431,20.5936536 127.958925,20.4181288 C127.849997,20.3876261 127.700153,20.5979347 127.505144,20.6680375 C126.733079,20.9436328 125.851022,21.2668552 125.27556,21.8849377 C125.169819,21.9983866 124.921674,21.9609271 124.872258,21.7500833 C124.761203,21.2684606 124.976404,20.8772759 125.022101,20.4101018 C125.046544,20.1639391 124.879165,19.9263385 124.666621,19.8749654 C123.220792,19.5298024 121.557105,19.7882733 120.105431,19.4211698 C119.971528,19.3863859 119.795648,19.3890616 119.707974,19.5768944 C119.539533,19.5565593 119.273853,19.516424 119.207965,19.6673325 C119.041649,20.0451388 119.004454,20.6257618 118.909872,21.1266494 C118.882773,21.2722065 118.955569,21.411342 119.06131,21.5108774 C119.01455,21.6457317 119.020926,21.8838674 119.204777,21.7757699 C119.41307,22.0411975 119.498618,22.353182 119.658026,22.7085126 C119.692565,23.7268771 119.509777,25.1267939 119.763767,26.1976018 C119.935927,26.9227116 119.808401,27.9555249 119.636772,28.6800995 C119.851973,29.3747066 119.817966,30.2913952 119.671842,30.97744 C119.776519,32.185778 119.937521,33.2929752 120.113933,34.1668529 C119.915204,35.2858231 119.778114,36.3758959 119.760579,37.4756012 C119.758985,37.6131312 119.330177,37.9058508 119.338679,38.0064565 C119.368435,38.3794465 119.468331,38.7829394 119.455047,39.1960647 C119.177146,39.5588871 118.875334,39.8623095 118.522511,40.1074019 L118.514541,41.0299771 C118.514009,41.0893772 118.57299,41.2311884 118.597433,41.2734641 C118.857267,41.7347517 119.439638,41.8118113 119.971528,41.912417 C120.561338,42.0226551 121.053908,41.8931521 121.755302,41.8225141 C122.892943,42.1211202 124.151734,41.9659306 125.498731,42.1537635 C125.614567,42.1698176 125.881309,41.8990386 125.875996,41.7599031 C125.861649,41.367113 125.923818,41.0010797 125.953574,40.7185277 C125.860055,40.2754348 125.577903,40.0437207 125.256962,39.9340177 C125.065141,39.868196 124.996064,39.6359468 124.981718,39.472195 C124.821247,37.6762773 124.870664,35.6759375 125.068329,33.8083115 L125.070455,32.4335461 C125.186291,32.0541345 125.143782,31.3552463 124.842502,30.9849319 C124.858974,30.3235034 124.967902,29.7107722 124.871726,28.8952244 C125.084801,28.1449631 125.302659,26.9285981 124.97481,26.017796 C125.264932,25.7347089 125.368547,25.1182317 125.286187,24.6109224 C125.265995,24.4862357 125.332946,24.3642246 125.407868,24.3412137 C125.775569,24.2277648 126.082163,23.9896291 126.477495,23.9205965 C126.978036,23.6455364 128.51951,23.9098938 128.746932,24.5017546 C128.682637,24.872069 128.702297,25.5072759 128.822385,25.919866 C128.799005,26.7220355 128.678918,27.4626642 128.642785,28.2059687 C128.600276,29.0728896 128.84417,29.6743829 128.987106,30.3780873 C128.806975,30.7168286 128.639066,31.0705538 128.387201,31.4649493 L128.37498,32.7856659 C128.372854,32.848812 128.484971,33.0361097 128.483377,33.092299 C128.448307,33.8420251 128.487097,34.6864703 128.428647,35.5384075 C128.624719,36.3068633 128.467436,37.1582653 128.330877,37.9834456 C128.153403,39.0558589 128.333002,40.0405099 128.402611,40.9855608 L128.402611,40.9855608 Z M135.41018,18.3407294 C136.297551,18.4434756 136.803405,18.5114379 137.695558,18.4809351 C138.553704,18.4504324 139.042023,18.3878214 139.879977,18.2005237 C140.799229,18.4102971 141.355562,18.4434756 142.293412,18.3460808 C142.73019,18.3005942 143.05857,18.421535 143.401297,18.1448695 C144.028301,17.6359548 142.270032,17.5637114 141.49531,17.3410946 C140.88159,17.1644996 140.522922,17.0970724 139.887947,17.0387426 C138.90015,16.8102393 138.327876,16.7267581 137.316167,16.6641471 C136.573858,16.6186605 136.153021,16.6507687 135.41018,16.6641471 C134.232688,16.6855525 133.567957,16.7160553 132.394184,16.8043528 C132.165699,16.4698926 131.966439,16.3040003 131.597676,16.141854 C130.963764,15.8625128 130.517953,16.2050001 129.830905,16.2809894 C129.083282,16.3650059 128.673604,16.6111686 127.924387,16.5608658 C127.269752,16.5169846 126.946154,16.2237298 126.29577,16.141854 C125.651231,16.0605132 125.276091,16.2135623 124.63102,16.141854 C123.926969,16.0626538 123.563519,15.83201 122.863719,15.7228422 C122.18039,15.6158149 121.786121,15.6313339 121.096417,15.5831716 C120.151128,15.5168147 119.617643,15.4863119 118.671292,15.4429659 C118.11974,15.1657652 117.761073,15.066765 117.145758,15.0239541 C116.449146,14.9763269 116.069755,15.3931982 115.377925,15.3032953 C114.882698,15.2390789 114.658996,14.9666945 114.165363,14.8842835 C113.213166,14.725348 112.684463,15.2123221 111.722171,15.2856358 C110.973486,15.3428954 110.548929,15.3038304 109.79865,15.3032953 C109.062185,15.3032953 108.644537,15.3439656 107.910198,15.2856358 C107.208272,15.2305167 106.826756,15.0731866 106.12483,15.0239541 C105.018539,14.9463593 104.386221,15.0319811 103.284182,15.1641598 C102.904791,15.2091113 102.548249,14.9998729 102.313388,15.3032953 C101.994572,15.7158854 103.06473,15.639896 103.576961,15.7228422 C104.244348,15.8304046 104.632772,15.6340095 105.309193,15.6350798 C106.224194,15.6372204 106.744395,15.6720042 107.649832,15.8106046 C108.277367,15.9058588 108.629659,15.9797077 109.24391,16.141854 C109.730104,16.1177728 110.00588,16.1177728 110.492074,16.141854 C111.021308,16.1680757 111.323652,16.3842708 111.843321,16.2809894 C112.318357,16.1878757 112.469794,15.7249827 112.953331,15.7228422 C113.385858,15.7207016 113.561738,16.0294753 113.975136,16.1600486 C114.607985,16.3596545 114.994815,16.3676815 115.655295,16.4211952 C116.39601,16.4811304 116.818441,16.4035357 117.561813,16.4211952 C119.378531,16.4640061 120.415214,16.4934386 122.206427,16.8043528 C123.382325,17.0077047 124.003485,17.3432352 125.18576,17.5027058 C126.138487,17.6311385 126.694821,17.5069869 127.646486,17.6423764 C128.607184,17.7788362 129.108256,18.0870747 130.071611,18.2005237 C131.455803,18.3648105 132.254436,17.9334906 133.642347,18.0619233 C134.337365,18.1250694 134.716756,18.2609941 135.41018,18.3407294 L135.41018,18.3407294 Z M155.077923,12.9963223 C155.077923,12.6083484 155.210232,12.2781693 155.474317,12.0041794 C155.740528,11.7296545 156.06147,11.5915893 156.436609,11.5915893 C156.813343,11.5915893 157.134284,11.7296545 157.399964,12.0041794 C157.664581,12.2781693 157.79689,12.6083484 157.79689,12.9963223 C157.79689,13.3864367 157.664581,13.7187564 157.399964,13.9943517 C157.135879,14.2694118 156.814406,14.4074769 156.436609,14.4074769 C156.058281,14.4074769 155.736809,14.2694118 155.472192,13.9943517 C155.209169,13.7187564 155.077923,13.3864367 155.077923,12.9963223 L155.077923,12.9963223 Z M157.557778,14.1522169 C157.867029,13.8322053 158.021655,13.4474423 158.021655,12.9963223 C158.021655,12.5468077 157.867029,12.1631149 157.557778,11.8468493 C157.248527,11.5305837 156.874981,11.3727185 156.436609,11.3727185 C156.001426,11.3727185 155.628943,11.5305837 155.321286,11.8468493 C155.012034,12.1647204 154.85794,12.547878 154.85794,12.9963223 C154.85794,13.4490477 155.010972,13.8338107 155.317035,14.1522169 C155.624692,14.4711582 155.998238,14.6306288 156.436609,14.6306288 C156.874981,14.6306288 157.248527,14.4711582 157.557778,14.1522169 L157.557778,14.1522169 Z M134.709317,36.8687565 C134.720476,38.4260034 135.126434,39.7825742 135.962794,40.6339761 C136.112638,40.7859549 136.062159,41.1980099 136.20722,41.3810265 C136.622212,41.9081359 136.886297,42.5733104 137.324137,43.0458358 C138.116395,43.9004487 139.398565,44.2424008 140.380518,44.8722563 C140.630257,45.0327972 140.939508,45.1039704 141.240257,44.92577 C141.805093,44.9771431 142.944859,45.2035058 143.520853,45.1933382 C143.962944,44.9931972 144.390688,44.9755377 144.849783,44.8032237 C145.613347,43.9577082 146.436954,43.0458358 146.68935,41.3804914 C146.800935,40.6446789 147.094246,39.8772933 146.976284,39.0307075 C146.910395,38.5592524 146.586266,38.2841923 146.018243,38.2312138 C145.863086,38.2895436 144.86041,38.4313548 144.652648,38.2130191 C144.137761,38.1017108 143.82851,38.4265385 143.737647,38.8487612 C143.569738,39.6348765 143.568144,40.515711 143.428927,41.2665074 C143.302995,41.9450603 143.069728,42.5358509 142.567594,42.6899701 C141.870981,42.9034896 139.90867,42.8403435 139.758827,41.1846315 C139.797085,39.7847147 139.734384,39.4342004 139.584541,38.2151597 C139.705691,37.6409583 139.746074,36.9896973 139.878914,36.3748256 C139.803993,35.4361964 139.760421,34.2824424 140.035134,33.4465593 L139.801867,32.1012265 C139.779019,31.9685126 139.784864,31.7432202 139.860317,31.581609 C140.109524,31.0502186 140.051075,30.1554705 139.827372,29.7343182 L139.987312,25.7015304 C140.011754,25.2306104 140.247146,24.8635068 140.553741,24.7067119 C140.875213,24.5418898 142.884815,24.8544095 143.086732,25.0374261 C143.268988,25.4243298 143.471436,26.0151203 143.251453,26.5309918 C143.021375,27.0704093 143.063883,27.6611998 143.141462,28.285704 C143.223291,28.9412461 143.513414,29.5026042 143.901306,29.8483023 C144.282822,30.188649 144.849783,30.3144061 145.210576,30.6782988 C145.331726,30.8003099 145.637789,30.6756231 145.752563,30.6274608 C146.487433,30.3208277 146.894986,29.5796638 146.872669,28.4697909 C146.824315,26.0493691 145.80995,24.5863062 144.811525,23.1687299 C144.454451,22.6608854 144.034146,22.1300302 143.316279,22.1995979 C142.937951,21.9743055 141.946966,21.8030618 141.643559,21.8169754 C140.622818,21.8646025 139.71313,22.1005977 138.915028,22.2434791 C137.830523,23.1542812 137.06324,24.2427486 136.377255,25.4344973 C136.105199,26.2259641 135.750782,26.943582 135.501043,27.8062218 C135.42559,28.0662981 135.189666,28.2680445 135.146626,28.3809583 C134.848002,29.1627926 134.682749,30.13353 134.806025,31.1128295 C134.5972,32.3484595 134.535031,33.6547274 134.613141,35.0680226 C134.617392,35.1611363 134.743855,35.4570667 134.71038,35.5544616 C134.591355,35.9017651 134.525467,36.356631 134.709317,36.8687565 L134.709317,36.8687565 Z" id="Fill-1" fill="#FFFFFF" mask="url(#mask-2)"></path>
            </g>
        </g>
    </g>
</svg>